# ProBuilder 4.5.2
# https://unity3d.com/unity/features/worldbuilding/probuilder
# 9/19/2021 7:29:32 PM

mtllib ./Ceiling.mtl
o Ceiling

g Cube
v 8.0146 5.3 48.0366
v -58.58944 5.3 48.0366
v 8.0146 5.8373 48.0366
v -58.58944 5.8373 48.0366
v -58.58944 5.3 -36.01242
v -58.58944 5.8373 -36.01242
v 8.0146 5.3 -36.01242
v 8.0146 5.8373 -36.01242

vt 0 0
vt -1 0
vt 0 1
vt -1 1
vt 1 0
vt 1 1
vt 0 -1
vt 1 -1
vt -1 -1

vn 0 0 84.04902
vn -66.60403 0 0
vn 0 0 -84.04902
vn 66.60403 0 0
vn 0 0.5373 0
vn 0 -0.5373 0

usemtl CubicleTan
f 3/3/1 4/4/1 2/2/1 1/1/1
f 4/3/2 6/4/2 5/2/2 2/1/2
f 6/6/3 8/3/3 7/1/3 5/5/3
f 8/6/4 3/3/4 1/1/4 7/5/4
f 8/7/5 6/8/5 4/5/5 3/1/5
f 1/1/6 2/2/6 5/9/6 7/7/6

