# ProBuilder 4.5.2
# https://unity3d.com/unity/features/worldbuilding/probuilder
# 9/20/2021 11:14:58 AM

mtllib ./Fridge.mtl
o Fridge

g Fridge (1)
v -30.38149 2.384186E-07 13.94602
v -31.85126 2.384186E-07 13.94602
v -30.38149 2.4496 13.94602
v -31.85126 2.4496 13.94602
v -31.11637 1.641053 12.96618
v -31.48381 1.641053 12.96618
v -31.85125 1.641053 12.96618
v -31.85126 2.384186E-07 12.96618
v -31.11637 2.384186E-07 12.96618
v -30.38149 1.641053 12.96618
v -30.74893 1.641053 12.96618
v -30.38149 2.384186E-07 12.96618
v -30.38149 2.4496 12.96618
v -30.74893 2.4496 12.96618
v -30.74893 1.729341 12.96618
v -30.38149 1.729341 12.96618
v -31.11637 2.4496 12.96618
v -31.11637 1.729341 12.96618
v -31.11637 1.729341 13.04005
v -31.11637 1.641053 13.04005
v -30.74893 1.641053 13.04005
v -30.74893 1.729341 13.04005
v -30.38149 1.641053 13.04005
v -30.38149 1.729341 13.04005
v -31.48381 2.4496 12.96618
v -31.48381 1.729341 12.96618
v -31.85126 2.4496 12.96618
v -31.85125 1.729341 12.96618
v -31.85125 1.729341 13.04005
v -31.85125 1.641053 13.04005
v -31.48381 1.641053 13.04005
v -31.48381 1.729341 13.04005
v -31.85126 2.384186E-07 13.4561
v -31.85126 2.4496 13.4561
v -31.77935 1.878781 12.8986
v -31.74616 1.878781 12.8986
v -31.74616 1.996881 12.87834
v -31.7744 1.996881 12.87834
v -31.71297 1.878781 12.8986
v -31.71792 1.996881 12.87834
v -31.71297 2.124331 12.89134
v -31.74616 2.124331 12.89134
v -31.77935 2.124331 12.89134
v -31.71297 1.864886 12.9777
v -31.71297 1.924083 12.9777
v -31.72957 1.864886 12.9777
v -31.72957 1.924083 12.9777
v -31.71297 1.913198 12.93597
v -31.72957 1.913198 12.93597
v -31.74616 1.864886 12.9777
v -31.76276 1.864886 12.9777
v -31.76276 1.924083 12.9777
v -31.74616 1.924083 12.9777
v -31.77935 1.864886 12.9777
v -31.77935 1.924083 12.9777
v -31.77935 1.913198 12.93597
v -31.76276 1.913198 12.93597
v -31.74616 1.913198 12.93597
v -31.74616 1.996881 12.92149
v -31.74616 2.083057 12.93159
v -31.76028 1.996881 12.92149
v -31.7744 1.996881 12.92149
v -31.77935 2.083057 12.93159
v -31.76276 2.083057 12.93159
v -31.77935 2.069679 12.9777
v -31.77935 2.142477 12.9777
v -31.76276 2.142477 12.9777
v -31.76276 2.069679 12.9777
v -31.74616 2.142477 12.9777
v -31.74616 2.069679 12.9777
v -31.71792 1.996881 12.92149
v -31.71297 2.083057 12.93159
v -31.73204 1.996881 12.92149
v -31.72957 2.083057 12.93159
v -31.72957 2.142477 12.9777
v -31.72957 2.069679 12.9777
v -31.71297 2.142477 12.9777
v -31.71297 2.069679 12.9777
v -31.77935 1.864886 12.93678
v -31.77935 2.142477 12.93678
v -31.71297 2.142477 12.93678
v -31.71297 1.864886 12.93678
v -31.72957 2.142477 12.93678
v -31.74616 2.142477 12.93678
v -31.76276 2.142477 12.93678
v -31.74616 1.864886 12.93678
v -31.72957 1.864886 12.93678
v -31.76276 1.864886 12.93678
v -31.78678 0.9576161 12.8986
v -31.74614 0.9576161 12.8986
v -31.74614 1.104153 12.87834
v -31.78072 1.104153 12.87834
v -31.7055 0.9576161 12.8986
v -31.71156 1.104153 12.87834
v -31.7055 1.262291 12.89134
v -31.74614 1.262291 12.89134
v -31.78678 1.262291 12.89134
v -31.7055 0.940375 12.9777
v -31.7055 1.013826 12.9777
v -31.72582 0.940375 12.9777
v -31.72582 1.013826 12.9777
v -31.7055 1.000319 12.93597
v -31.72582 1.000319 12.93597
v -31.74614 0.940375 12.9777
v -31.76646 0.940375 12.9777
v -31.76646 1.013826 12.9777
v -31.74614 1.013826 12.9777
v -31.78678 0.940375 12.9777
v -31.78678 1.013826 12.9777
v -31.78678 1.000319 12.93597
v -31.76646 1.000319 12.93597
v -31.74614 1.000319 12.93597
v -31.74614 1.104153 12.92149
v -31.74614 1.211079 12.93159
v -31.76343 1.104153 12.92149
v -31.78072 1.104153 12.92149
v -31.78678 1.211079 12.93159
v -31.76646 1.211079 12.93159
v -31.78678 1.194479 12.9777
v -31.78678 1.284806 12.9777
v -31.76646 1.284806 12.9777
v -31.76646 1.194479 12.9777
v -31.74614 1.284806 12.9777
v -31.74614 1.194479 12.9777
v -31.71156 1.104153 12.92149
v -31.7055 1.211079 12.93159
v -31.72885 1.104153 12.92149
v -31.72582 1.211079 12.93159
v -31.72582 1.284806 12.9777
v -31.72582 1.194479 12.9777
v -31.7055 1.284806 12.9777
v -31.7055 1.194479 12.9777
v -31.78678 0.940375 12.93678
v -31.78678 1.284806 12.93678
v -31.7055 1.284806 12.93678
v -31.7055 0.940375 12.93678
v -31.72582 1.284806 12.93678
v -31.74614 1.284806 12.93678
v -31.76646 1.284806 12.93678
v -31.74614 0.940375 12.93678
v -31.72582 0.940375 12.93678
v -31.76646 0.940375 12.93678

vt 0 0
vt -1.2 0
vt 0 2
vt -1.2 2
vt 0.5999995 1.339854
vt 0.8999989 1.339854
vt 1.2 1.339854
vt 1.2 -2.953614E-07
vt 0.6 -2.953614E-07
vt -8.258346E-07 1.339854
vt 0.2999986 1.339854
vt 3.013134E-15 2
vt 0.3 2
vt 0.2999986 1.411937
vt -8.258346E-07 1.411937
vt 0.6 2
vt 0.5999995 1.411937
vt 0.9 2
vt 0.8999989 1.411937
vt 1.2 2
vt 1.2 1.411937
vt 0.8 2
vt 0.8000004 1.411937
vt 0.8000004 1.339854
vt 0.8 -2.987773E-14
vt 0.8999989 -0.8000031
vt 0.5999995 -0.8000031
vt 0.8999974 -0.7396922
vt 0.5999979 -0.7396922
vt -0.8999989 -0.8000032
vt -1.2 -0.8000032
vt -0.8999974 -0.7396923
vt -1.199998 -0.7396923
vt 0.7397203 1.411937
vt 0.7397203 1.339854
vt 1.2 -0.8000031
vt 1.199998 -0.7396922
vt 0.2999986 -0.8000031
vt 0.299997 -0.7396922
vt -0.5999995 -0.8000032
vt -0.5999979 -0.7396923
vt -0.2999986 -0.8000032
vt -0.299997 -0.7396923
vt -8.258346E-07 -0.8000031
vt -2.383108E-06 -0.7396922
vt -0.8000004 1.339854
vt -0.8000004 1.411937
vt -0.7396895 1.339854
vt -0.7396895 1.411937
vt -0.6 -0.8
vt -1.2 -0.8
vt -1.2 -0.4
vt -0.3999998 -1.297625E-08
vt -0.3999998 2
vt -0.7999998 -1.297625E-08
vt -0.7999998 2
vt 1.2 -0.4
vt 1.2 -0.8
vt 0.9 -0.8
vt 0.6 -0.8
vt 0.3 -0.8
vt 0.8976825 1.566445
vt 0.8680971 1.566221
vt 0.867365 1.663107
vt 0.8925397 1.663297
vt 0.8717108 1.566249
vt 0.8454359 1.56605
vt 0.8486208 1.662966
vt 0.8709787 1.663135
vt 0.8479927 1.662981
vt 0.8432922 1.766628
vt 0.8695671 1.766827
vt 0.8703505 1.663149
vt 0.8665816 1.766799
vt 0.8962339 1.767023
vt 1.192093E-07 0.02568913
vt 1.192093E-07 0.1375003
vt -0.04999983 0.02568913
vt -0.04999983 0.1375003
vt 1.0871 1.691241
vt 1.100648 1.691241
vt -0.09999979 0.02568913
vt -0.1499999 0.02568913
vt -0.1499999 0.1375003
vt -0.09999979 0.1375003
vt -0.2000003 0.02568913
vt -0.2000003 0.1375003
vt 1.141293 1.691241
vt 1.127745 1.691241
vt 1.114197 1.691241
vt 1.114197 1.622689
vt 1.114197 1.552607
vt 1.125725 1.622689
vt 1.137254 1.622689
vt 1.141293 1.552607
vt 1.127745 1.552607
vt -0.1999998 0.4125001
vt -0.1999998 0.5500002
vt -0.1499995 0.5500002
vt -0.1499995 0.4125001
vt -0.09999955 0.5500002
vt -0.09999955 0.4125001
vt 1.09114 1.622689
vt 1.0871 1.552607
vt 1.102668 1.622689
vt 1.100648 1.552607
vt -0.04999971 0.5500002
vt -0.04999971 0.4125001
vt 2.384186E-07 0.5500002
vt 2.384186E-07 0.4125001
vt -0.0116834 0.2752579
vt 0.01341254 0.1171647
vt 0.01467037 0.02591228
vt -0.0511958 0.05226684
vt -0.08616233 0.2753819
vt -0.06297505 0.516078
vt 0.0155195 0.5502214
vt 0.006365955 0.4380051
vt 0.02440745 0.2736834
vt -0.003627717 0.4350498
vt -0.01928139 0.5464933
vt 0.0700596 0.5167172
vt 0.107605 0.2778718
vt 0.07933402 0.05339146
vt 0.007026851 0.02350616
vt 0.004018307 0.1146052
vt 0.1999997 0.2218294
vt 0.1999997 0.1368517
vt 0.09999931 0.1368517
vt -5.960464E-07 0.1368517
vt -5.960464E-07 0.2218294
vt 0.04999936 0.2218294
vt 0.09999931 0.2218294
vt 0.1499993 0.2218294
vt -0.09999955 -0.009575367
vt -0.04999948 -0.009575367
vt 5.960464E-07 -0.009575367
vt 5.960464E-07 -0.07998705
vt -0.09999955 -0.07998705
vt -0.2000002 -0.07998705
vt -0.2000002 -0.009575367
vt -0.1499996 -0.009575367
vt -0.15 -0.141997
vt -0.2 -0.141997
vt -0.15 -0.05915558
vt -0.2 -0.05915558
vt -0.00899142 0.4372643
vt -0.0009176731 0.5500299
vt 0.07102436 0.4125458
vt 0.06989324 0.5506101
vt 0.2 5.960464E-08
vt 0.15 5.960464E-08
vt 0.2 0.07000011
vt 0.15 0.07000011
vt -0.09999979 -0.141997
vt -0.09999979 -0.05915558
vt 0.1000003 5.960464E-08
vt 0.1000003 0.07000011
vt -0.04999983 -0.141997
vt -0.04999983 -0.05915558
vt 0.09999979 5.960464E-08
vt 0.04999983 5.960464E-08
vt 0.09999979 0.07000011
vt 0.04999983 0.07000011
vt 1.192093E-07 -0.141997
vt -0.05000103 -0.141997
vt 1.192093E-07 -0.05915558
vt -0.05000103 -0.05915558
vt 0.000919342 0.550029
vt 0.008993089 0.4372635
vt -0.06989157 0.5506092
vt -0.07102269 0.412545
vt 0.05000019 5.960464E-08
vt 0.05000019 0.07000011
vt 2.384186E-07 0.07000011
vt -0.1000007 5.960464E-08
vt -0.1500019 5.960464E-08
vt -0.1000007 0.06999975
vt -0.1500019 0.06999975
vt 0.1500009 0.03102276
vt 0.09999979 0.03102276
vt 0.1500009 0.105318
vt 0.09999979 0.105318
vt -0.2000004 5.960464E-08
vt -0.2000004 0.06999975
vt -0.001409888 0.1170311
vt 0.06998307 0.02557242
vt 0.07016432 0.1374966
vt 0.2 0.03102279
vt 0.2 0.105318
vt -0.0500015 5.960464E-08
vt -0.0500015 0.06999975
vt 0.04999983 0.03102276
vt 0.04999983 0.105318
vt -8.34465E-07 0.06999975
vt 0.001409531 0.117031
vt -0.07016057 0.1374989
vt -0.06998348 0.02557719
vt 0.05000103 0.03102276
vt -1.192093E-07 0.03102276
vt 0.05000103 0.105318
vt -1.192093E-07 0.105318
vt 0.903564 0.814729
vt 0.8682556 0.8144622
vt 0.8673482 0.9345542
vt 0.8973917 0.9347811
vt 0.8718441 0.8144922
vt 0.839671 0.8142493
vt 0.8435619 0.9343775
vt 0.8709376 0.9345841
vt 0.8430527 0.934397
vt 0.8372827 1.063081
vt 0.8694557 1.063324
vt 0.8704284 0.9346038
vt 0.8663765 1.063293
vt 0.9021153 1.063562
vt 0.897758 0.9348018
vt -0.05000007 0.02568907
vt -0.05000007 0.1375002
vt 1.081 0.9793512
vt 1.09759 0.9793512
vt -0.1500001 0.02568907
vt -0.1500001 0.1375002
vt 1.147359 0.9793512
vt 1.130769 0.9793512
vt 1.114179 0.9793512
vt 1.114179 0.8943976
vt 1.114179 0.8073264
vt 1.128296 0.8943976
vt 1.142411 0.8943976
vt 1.147359 0.8073264
vt 1.130769 0.8073264
vt 1.085948 0.8943976
vt 1.081 0.8073264
vt 1.100063 0.8943976
vt 1.09759 0.8073264
vt 0.01401073 0.117328
vt 0.01556903 0.02608013
vt -0.05030632 0.05221683
vt -0.06360638 0.5159866
vt 0.01468211 0.5503891
vt 0.005910754 0.4381431
vt 0.02248693 0.2765769
vt 0.01113141 0.4399971
vt 0.007211089 0.5524507
vt 0.09503871 0.5131979
vt 0.107721 0.2717443
vt 0.05447012 0.05170691
vt -0.02244037 0.02982241
vt -0.01567125 0.1206889
vt -0.009376168 0.4381158
vt 0.06951171 0.4121628
vt 0.07070512 0.5496523
vt 0.15 5.960464E-08
vt 0.15 0.07000011
vt 0.009377837 0.4381149
vt -0.07070345 0.5496516
vt -0.06951004 0.4121619
vt -0.001470625 0.1168769
vt 0.07011193 0.02574736
vt 0.0699228 0.1375582
vt -0.05000174 0.07001704
vt 0.001469016 0.1168802
vt -0.06992441 0.1375591
vt -0.07010955 0.02574813

vn 0 0 1.2248
vn 0 -3.814046E-07 -1.2248
vn 1.2248 5.733414E-07 8.429014E-07
vn 0 1.2248 2.420915E-06
vn 0 -1.2248 -2.420914E-06
vn -1.2248 0 3.162527E-05
vn 0 -0.2070877 -1.207166
vn 0 0.1242817 -1.218478
vn 0 0.2088225 1.206867
vn 0 -0.001978271 1.212635
vn 0 -0.1425122 1.216481
vn 0 0.0331552 1.211674
vn 0 0.09171098 1.210072
vn -1.222726 0.001041944 0
vn -1.223595 0.03884957 -0.01358532
vn -1.224061 0.02212953 -0.02037798
vn -1.223006 0.0008378392 -0.02121008
vn -1.224026 -0.0214958 -0.02204217
vn -1.223612 -0.03773245 -0.01469478
vn 1.222726 0.001041914 0
vn 1.223612 -0.03773134 -0.01469435
vn 1.224026 -0.02149517 -0.02204152
vn 1.223006 0.0008378118 -0.02120945
vn 1.224061 0.02212888 -0.02037738
vn 1.223595 0.03884842 -0.01358492
vn 0 1.137489 -0.4541515
vn 0 -1.150978 -0.4187895
vn 0 -1.176296 -0.341265
vn 0 1.185139 -0.3091599
vn 0 -0.1677427 -1.213259
vn 0 0.1003447 -1.220683
vn 0 0.1691624 1.213062
vn 0 -0.00141297 1.216851
vn 0 -0.1151299 1.219377
vn 0 0.02701626 1.216219
vn 0 0.07439832 1.215167
vn -1.223508 0.03834372 -0.01663387
vn -1.223902 0.02183726 -0.0249508
vn -1.222859 0.0008274795 -0.02596904
vn -1.223837 -0.02121084 -0.02698728
vn -1.223504 -0.03724042 -0.01799152
vn 1.223504 -0.03724042 -0.01799152
vn 1.223837 -0.02121084 -0.02698728
vn 1.222859 0.0008274783 -0.02596904
vn 1.223902 0.02183726 -0.0249508
vn 1.223508 0.03834372 -0.01663387
vn 0 1.097512 -0.5436931
vn 0 -1.116307 -0.5039771
vn 0 -1.152411 -0.4148312
vn 0 1.16528 -0.377172

usemtl Grey
f 2/2/5 9/50/5 1/1/5
f 2/2/5 33/52/5 9/50/5
f 33/52/5 8/51/5 9/50/5
f 9/50/5 12/44/5 1/1/5
f 25/59/4 27/58/4 34/57/4
f 17/60/4 25/59/4 34/57/4
f 4/8/4 17/60/4 34/57/4
f 3/1/4 13/44/4 14/61/4
f 3/1/4 14/61/4 17/60/4
f 4/8/4 3/1/4 17/60/4
f 4/4/1 2/2/1 1/1/1
f 1/1/1 3/3/1 4/4/1

usemtl fridge_front
f 8/8/2 7/7/2 6/6/2
f 8/8/2 6/6/2 9/9/2
f 5/5/2 9/9/2 6/6/2
f 9/9/2 5/5/2 11/11/2
f 9/9/2 11/11/2 12/1/2
f 10/10/2 12/1/2 11/11/2
f 15/14/2 14/13/2 13/12/2
f 13/12/2 16/15/2 15/14/2
f 18/17/2 17/16/2 14/13/2
f 14/13/2 15/14/2 18/17/2
f 18/17/2 26/19/2 25/18/2
f 25/18/2 17/16/2 18/17/2
f 28/21/2 27/20/2 25/18/2
f 25/18/2 26/19/2 28/21/2

usemtl Black_metal
f 21/11/2 20/5/2 19/17/2 22/14/2
f 23/10/2 21/11/2 22/14/2 24/15/2
f 30/7/2 29/21/2 32/19/2 31/6/2
f 19/17/2 20/5/2 31/6/2 32/19/2
f 31/28/4 20/29/4 5/27/4 6/26/4
f 32/32/5 29/33/5 28/31/5 26/30/5
f 29/34/3 30/35/3 7/24/3 28/23/3
f 30/37/4 31/28/4 6/26/4 7/36/4
f 20/29/4 21/39/4 11/38/4 5/27/4
f 19/41/5 32/32/5 26/30/5 18/40/5
f 22/43/5 19/41/5 18/40/5 15/42/5
f 21/39/4 23/45/4 10/44/4 11/38/4
f 24/45/5 22/43/5 15/42/5 16/44/5
f 23/48/6 24/49/6 16/47/6 10/46/6

usemtl fridge_front
f 7/46/6 8/55/6 33/53/6
f 33/53/6 34/54/6 7/46/6
f 34/54/6 28/47/6 7/46/6
f 34/54/6 27/56/6 28/47/6
f 34/54/6 33/53/6 2/1/6
f 2/1/6 4/3/6 34/54/6

usemtl Grey
f 16/23/3 13/22/3 3/3/3
f 10/24/3 16/23/3 3/3/3
f 10/24/3 3/3/3 1/1/3
f 1/1/3 12/25/3 10/24/3

usemtl istockphoto-1057639240-612x612
f 35/114/16 79/113/6 56/112/15
f 38/115/17 35/114/16 56/112/15
f 38/115/17 56/112/15 62/111/14
f 38/115/17 62/111/14 63/118/19
f 43/116/18 38/115/17 63/118/19
f 43/116/18 63/118/19 80/117/6
f 81/121/3 72/120/21 41/122/22
f 72/120/21 40/123/23 41/122/22
f 72/120/21 71/119/20 40/123/23
f 71/119/20 48/126/25 40/123/23
f 48/126/25 39/124/24 40/123/23
f 48/126/25 82/125/3 39/124/24
f 85/134/26 43/128/26 80/127/26
f 43/128/26 85/134/26 42/129/26
f 85/134/26 84/133/26 42/129/26
f 83/132/26 42/129/26 84/133/26
f 42/129/26 83/132/26 41/130/26
f 83/132/26 81/131/26 41/130/26
f 39/138/27 82/137/27 87/136/27
f 39/138/27 87/136/27 36/139/27
f 86/135/27 36/139/27 87/136/27
f 36/139/27 86/135/27 88/142/27
f 36/139/27 88/142/27 35/140/27
f 79/141/27 35/140/27 88/142/27
f 52/84/1 51/83/1 50/82/1
f 52/84/1 50/82/1 53/85/1
f 55/87/1 54/86/1 51/83/1
f 55/87/1 51/83/1 52/84/1
f 47/79/1 50/82/1 46/78/1
f 47/79/1 53/85/1 50/82/1
f 45/77/1 46/78/1 44/76/1
f 45/77/1 47/79/1 46/78/1
f 66/98/1 65/97/1 68/100/1
f 66/98/1 68/100/1 67/99/1
f 67/99/1 68/100/1 70/102/1
f 67/99/1 70/102/1 69/101/1
f 69/101/1 70/102/1 76/108/1
f 69/101/1 76/108/1 75/107/1
f 75/107/1 76/108/1 78/110/1
f 75/107/1 78/110/1 77/109/1
f 64/96/11 62/94/12 61/93/12
f 64/96/11 63/95/11 62/94/12
f 60/92/11 61/93/12 59/91/10
f 60/92/11 64/96/11 61/93/12
f 74/106/11 59/91/10 73/105/12
f 74/106/11 60/92/11 59/91/10
f 72/104/11 73/105/12 71/103/13
f 72/104/11 74/106/11 73/105/12
f 71/103/13 49/81/9 48/80/9
f 71/103/13 73/105/12 49/81/9
f 62/94/12 56/88/9 57/89/9
f 62/94/12 57/89/9 61/93/12
f 61/93/12 57/89/9 58/90/9
f 61/93/12 58/90/9 59/91/10
f 73/105/12 58/90/9 49/81/9
f 73/105/12 59/91/10 58/90/9
f 89/239/38 133/238/6 110/237/37
f 92/115/39 89/239/38 110/237/37
f 92/115/39 110/237/37 116/111/14
f 92/115/39 116/111/14 117/242/41
f 97/240/40 92/115/39 117/242/41
f 97/240/40 117/242/41 134/241/6
f 135/245/3 126/244/42 95/246/43
f 126/244/42 94/247/44 95/246/43
f 126/244/42 125/243/20 94/247/44
f 125/243/20 102/250/46 94/247/44
f 102/250/46 93/248/45 94/247/44
f 102/250/46 136/249/3 93/248/45
f 139/134/47 97/128/47 134/127/47
f 97/128/47 139/134/47 96/129/47
f 139/134/47 138/133/47 96/129/47
f 137/132/47 96/129/47 138/133/47
f 96/129/47 137/132/47 95/130/47
f 137/132/47 135/131/47 95/130/47
f 93/138/48 136/137/48 141/136/48
f 93/138/48 141/136/48 90/139/48
f 140/135/48 90/139/48 141/136/48
f 90/139/48 140/135/48 142/142/48
f 90/139/48 142/142/48 89/140/48
f 133/141/48 89/140/48 142/142/48
f 106/223/1 105/222/1 104/82/1
f 106/223/1 104/82/1 107/85/1
f 109/87/1 108/86/1 105/222/1
f 109/87/1 105/222/1 106/223/1
f 101/219/1 104/82/1 100/218/1
f 101/219/1 107/85/1 104/82/1
f 99/77/1 100/218/1 98/76/1
f 99/77/1 101/219/1 100/218/1
f 120/98/1 119/97/1 122/100/1
f 120/98/1 122/100/1 121/99/1
f 121/99/1 122/100/1 124/102/1
f 121/99/1 124/102/1 123/101/1
f 123/101/1 124/102/1 130/108/1
f 123/101/1 130/108/1 129/107/1
f 129/107/1 130/108/1 132/110/1
f 129/107/1 132/110/1 131/109/1
f 118/232/34 116/230/35 115/229/35
f 118/232/34 117/231/34 116/230/35
f 114/228/34 115/229/35 113/227/33
f 114/228/34 118/232/34 115/229/35
f 128/236/34 113/227/33 127/235/35
f 128/236/34 114/228/34 113/227/33
f 126/234/34 127/235/35 125/233/36
f 126/234/34 128/236/34 127/235/35
f 125/233/36 103/221/32 102/220/32
f 125/233/36 127/235/35 103/221/32
f 116/230/35 110/224/32 111/225/32
f 116/230/35 111/225/32 115/229/35
f 115/229/35 111/225/32 112/226/32
f 115/229/35 112/226/32 113/227/33
f 127/235/35 112/226/32 103/221/32
f 127/235/35 113/227/33 112/226/32
f 35/62/7 38/65/7 37/64/7
f 37/64/7 36/63/7 35/62/7
f 36/66/7 37/69/7 40/68/7
f 40/68/7 39/67/7 36/66/7
f 37/73/8 42/72/8 41/71/8
f 41/71/8 40/70/8 37/73/8
f 38/65/8 43/75/8 42/74/8
f 42/74/8 37/64/8 38/65/8
f 65/146/28 63/144/28 64/143/28
f 64/143/28 68/145/28 65/146/28
f 66/150/6 80/148/6 63/147/6
f 63/147/6 65/149/6 66/150/6
f 67/154/4 85/152/4 80/151/4
f 80/151/4 66/153/4 67/154/4
f 68/145/28 64/143/28 60/155/28
f 60/155/28 70/156/28 68/145/28
f 69/158/4 84/157/4 85/152/4
f 85/152/4 67/154/4 69/158/4
f 70/156/28 60/155/28 74/159/28
f 74/159/28 76/160/28 70/156/28
f 75/164/4 83/162/4 84/161/4
f 84/161/4 69/163/4 75/164/4
f 76/168/28 74/166/28 72/165/28
f 72/165/28 78/167/28 76/168/28
f 78/172/3 72/170/3 81/169/3
f 81/169/3 77/171/3 78/172/3
f 77/175/4 81/1/4 83/173/4
f 83/173/4 75/174/4 77/175/4
f 51/179/5 88/177/5 86/176/5
f 86/176/5 50/178/5 51/179/5
f 53/183/29 58/181/29 57/180/29
f 57/180/29 52/182/29 53/183/29
f 54/185/5 79/184/5 88/177/5
f 88/177/5 51/179/5 54/185/5
f 55/188/6 56/186/6 79/76/6
f 79/76/6 54/187/6 55/188/6
f 52/182/29 57/180/29 56/189/29
f 56/189/29 55/190/29 52/182/29
f 50/178/5 86/176/5 87/191/5
f 87/191/5 46/192/5 50/178/5
f 47/194/29 49/193/29 58/181/29
f 58/181/29 53/183/29 47/194/29
f 46/192/5 87/191/5 82/1/5
f 82/1/5 44/195/5 46/192/5
f 44/198/3 82/76/3 48/196/3
f 48/196/3 45/197/3 44/198/3
f 45/202/29 48/200/29 49/199/29
f 49/199/29 47/201/29 45/202/29
f 89/203/30 92/206/30 91/205/30
f 91/205/30 90/204/30 89/203/30
f 90/207/30 91/210/30 94/209/30
f 94/209/30 93/208/30 90/207/30
f 91/214/31 96/213/31 95/212/31
f 95/212/31 94/211/31 91/214/31
f 92/217/31 97/216/31 96/215/31
f 96/215/31 91/205/31 92/217/31
f 119/146/49 117/144/49 118/143/49
f 118/143/49 122/145/49 119/146/49
f 120/253/6 134/169/6 117/251/6
f 117/251/6 119/252/6 120/253/6
f 121/154/4 139/152/4 134/151/4
f 134/151/4 120/153/4 121/154/4
f 122/145/49 118/143/49 114/155/49
f 114/155/49 124/156/49 122/145/49
f 123/158/4 138/157/4 139/254/4
f 139/254/4 121/255/4 123/158/4
f 124/156/49 114/155/49 128/159/49
f 128/159/49 130/160/49 124/156/49
f 129/164/4 137/162/4 138/161/4
f 138/161/4 123/158/4 129/164/4
f 130/168/49 128/166/49 126/165/49
f 126/165/49 132/167/49 130/168/49
f 132/258/3 126/256/3 135/148/3
f 135/148/3 131/257/3 132/258/3
f 131/175/4 135/1/4 137/162/4
f 137/162/4 129/164/4 131/175/4
f 105/179/5 142/177/5 140/176/5
f 140/176/5 104/178/5 105/179/5
f 107/183/50 112/181/50 111/180/50
f 111/180/50 106/182/50 107/183/50
f 108/185/5 133/184/5 142/177/5
f 142/177/5 105/179/5 108/185/5
f 109/261/6 110/259/6 133/76/6
f 133/76/6 108/260/6 109/261/6
f 106/182/50 111/180/50 110/189/50
f 110/189/50 109/190/50 106/182/50
f 104/178/5 140/176/5 141/191/5
f 141/191/5 100/192/5 104/178/5
f 101/194/50 103/193/50 112/181/50
f 112/181/50 107/183/50 101/194/50
f 100/262/5 141/191/5 136/1/5
f 136/1/5 98/195/5 100/262/5
f 98/265/3 136/76/3 102/263/3
f 102/263/3 99/264/3 98/265/3
f 99/202/50 102/200/50 103/199/50
f 103/199/50 101/201/50 99/202/50

