# ProBuilder 4.5.2
# https://unity3d.com/unity/features/worldbuilding/probuilder
# 11/12/2021 10:48:32 AM

mtllib ./Office_Door.mtl
o Office Door

g Cylinder
v -6.372 2.558 7.075
v -6.174867 2.558 7.075
v -6.372 2.542052 7.11626
v -6.174867 2.542052 7.11626
v -6.372 2.503549 7.13335
v -6.174867 2.503549 7.13335
v -6.372 2.465047 7.11626
v -6.174867 2.465047 7.11626
v -6.372 2.449098 7.075
v -6.174867 2.449098 7.075
v -6.372 2.465047 7.03374
v -6.174867 2.465047 7.03374
v -6.372 2.503549 7.01665
v -6.174867 2.503549 7.01665
v -6.372 2.542052 7.03374
v -6.174867 2.542052 7.03374
v -6.372 2.503549 7.075
v -6.174867 2.503549 7.075

vt 0 0
vt 0 0.25
vt 0.05357568 0
vt 0.05357568 0.25
vt 0.03788373 0
vt 0.03788373 0.25
vt 0.09145941 0
vt 0.09145941 0.25
vt -0.05357568 0
vt -0.05357568 0.25
vt -0.09145942 0
vt -0.09145942 0.25
vt -0.03788373 0
vt -0.03788373 0.25
vt 0.07 0
vt 0.02050253 0.04949747
vt -0.07 0
vt -0.02050253 0.04949747
vt 0.07 0.07
vt -0.07 0.07
vt 0.1194975 0.04949747
vt -0.1194975 0.04949747
vt 0.14 -6.119594E-09
vt -0.14 -6.119594E-09
vt 0.1194975 -0.04949747
vt -0.1194975 -0.04949747
vt 0.07 -0.07
vt -0.07 -0.07
vt 0.02050253 -0.04949748
vt -0.02050253 -0.04949748

vn -6.9547E-07 0.7778701 -2.688914E-08
vn -4.917715E-07 0.5500372 0.589423
vn -1.121717E-14 1.254619E-08 0.83357
vn 4.917716E-07 -0.5500373 0.589423
vn 6.9547E-07 -0.7778701 -5.377827E-08
vn 4.917715E-07 -0.5500372 -0.589423
vn 3.36515E-14 -3.763857E-08 -0.83357
vn -4.917715E-07 0.5500372 -0.5894231
vn -0.7885301 -7.050007E-07 0
vn 0.7885301 7.050007E-07 0

usemtl Plastic
f 1/1/9 17/15/9 3/16/9
f 3/16/9 17/15/9 5/19/9
f 5/19/9 17/15/9 7/21/9
f 7/21/9 17/15/9 9/23/9
f 9/23/9 17/15/9 11/25/9
f 11/25/9 17/15/9 13/27/9
f 13/27/9 17/15/9 15/29/9
f 15/29/9 17/15/9 1/1/9
f 4/18/10 18/17/10 2/1/10
f 6/20/10 18/17/10 4/18/10
f 8/22/10 18/17/10 6/20/10
f 10/24/10 18/17/10 8/22/10
f 12/26/10 18/17/10 10/24/10
f 14/28/10 18/17/10 12/26/10
f 16/30/10 18/17/10 14/28/10
f 2/1/10 18/17/10 16/30/10
f 4/4/2 2/2/1 1/1/1
f 1/1/1 3/3/2 4/4/2
f 6/8/3 4/6/2 3/5/2
f 3/5/2 5/7/3 6/8/3
f 8/8/4 6/6/3 5/5/3
f 5/5/3 7/7/4 8/8/4
f 10/4/5 8/2/4 7/1/4
f 7/1/4 9/3/5 10/4/5
f 12/2/6 10/10/5 9/9/5
f 9/9/5 11/1/6 12/2/6
f 14/14/7 12/12/6 11/11/6
f 11/11/6 13/13/7 14/14/7
f 16/14/8 14/12/7 13/11/7
f 13/11/7 15/13/8 16/14/8
f 2/2/1 16/10/8 15/9/8
f 15/9/8 1/1/1 2/2/1

g Cylinder (1)
v -6.359002 2.71 7.08
v -6.340343 2.71 7.08
v -6.359002 2.65535 7.211937
v -6.340343 2.65535 7.211937
v -6.359002 2.523413 7.266587
v -6.340343 2.523413 7.266587
v -6.359001 2.391475 7.211937
v -6.340343 2.391475 7.211937
v -6.359001 2.336825 7.08
v -6.340343 2.336825 7.08
v -6.359001 2.391475 6.948062
v -6.340343 2.391475 6.948062
v -6.359002 2.523413 6.893413
v -6.340343 2.523413 6.893413
v -6.359002 2.65535 6.948062
v -6.340343 2.65535 6.948062
v -6.359002 2.523413 7.08
v -6.340343 2.523413 7.08

vt 0 0
vt 0 0.025
vt 0.1913417 0
vt 0.1913417 0.025
vt 0.135299 0
vt 0.135299 0.025
vt 0.3266407 0
vt 0.3266407 0.025
vt -0.1913417 0
vt -0.1913417 0.025
vt -0.3266407 0
vt -0.3266407 0.025
vt -0.135299 0
vt -0.135299 0.025
vt 0.25 0
vt 0.07322331 0.1767767
vt -0.25 0
vt -0.07322331 0.1767767
vt 0.25 0.25
vt -0.25 0.25
vt 0.4267767 0.1767767
vt -0.4267767 0.1767767
vt 0.5 -2.185569E-08
vt -0.5 -2.185569E-08
vt 0.4267767 -0.1767767
vt -0.4267767 -0.1767767
vt 0.25 -0.25
vt -0.25 -0.25
vt 0.07322334 -0.1767767
vt -0.07322334 -0.1767767

vn -6.672888E-07 0.74635 -4.815122E-08
vn -4.718444E-07 0.5277491 0.5277491
vn 0 0 0.74635
vn 4.718445E-07 -0.5277492 0.5277491
vn 6.672888E-07 -0.74635 -1.203781E-08
vn 4.718445E-07 -0.5277492 -0.5277491
vn 4.305054E-14 -4.815122E-08 -0.74635
vn -4.718444E-07 0.5277491 -0.5277492
vn -0.74635 -6.672888E-07 0
vn 0.74635 6.672888E-07 0

usemtl Plastic
f 19/31/19 35/45/19 21/46/19
f 21/46/19 35/45/19 23/49/19
f 23/49/19 35/45/19 25/51/19
f 25/51/19 35/45/19 27/53/19
f 27/53/19 35/45/19 29/55/19
f 29/55/19 35/45/19 31/57/19
f 31/57/19 35/45/19 33/59/19
f 33/59/19 35/45/19 19/31/19
f 22/48/20 36/47/20 20/31/20
f 24/50/20 36/47/20 22/48/20
f 26/52/20 36/47/20 24/50/20
f 28/54/20 36/47/20 26/52/20
f 30/56/20 36/47/20 28/54/20
f 32/58/20 36/47/20 30/56/20
f 34/60/20 36/47/20 32/58/20
f 20/31/20 36/47/20 34/60/20
f 22/34/12 20/32/11 19/31/11
f 19/31/11 21/33/12 22/34/12
f 24/38/13 22/36/12 21/35/12
f 21/35/12 23/37/13 24/38/13
f 26/38/14 24/36/13 23/35/13
f 23/35/13 25/37/14 26/38/14
f 28/34/15 26/32/14 25/31/14
f 25/31/14 27/33/15 28/34/15
f 30/32/16 28/40/15 27/39/15
f 27/39/15 29/31/16 30/32/16
f 32/44/17 30/42/16 29/41/16
f 29/41/16 31/43/17 32/44/17
f 34/44/18 32/42/17 31/41/17
f 31/41/17 33/43/18 34/44/18
f 20/32/11 34/40/18 33/39/18
f 33/39/18 19/31/11 20/32/11

g Door
v -6.65 0 7.49
v -6.65 0 4.89
v -6.65 5.9 7.49
v -6.65 5.9 4.89
v -6.45 0 4.89
v -6.45 2.95 4.89
v -6.45 5.9 4.89
v -6.45 0 6.19
v -6.45 2.95 6.19
v -6.45 0 7.49
v -6.45 5.9 6.19
v -6.45 5.9 6.84
v -6.45 5.9 7.49
v -6.45 2.95 7.49
v -6.45 4.425 7.49
v -6.45 3.6875 7.49
v -6.45 2.95 6.84
v -6.45 2.95 6.515
v -6.45 2.95 7.165
v -6.45 4.425 6.84
v -6.45 4.425 7.165
v -6.45 4.425 6.19
v -6.45 4.425 6.515
v -6.45 3.6875 6.19
v -6.45 3.6875 6.515
v -6.45 3.6875 7.165

vt 0 0
vt -2.6 0
vt 0 5.9
vt -2.6 5.9
vt 0.2 0
vt 0 2.95
vt 0.2 5.9
vt 2.6 0
vt 1.3 0
vt 1.3 2.95
vt 2.6 2.95
vt 0 -2.6
vt -0.2 -2.6
vt -0.2 0
vt 0 -1.3
vt 0.2 -2.6
vt 0 -0.65
vt -0.2 5.9
vt 0 4.425
vt 0 3.6875
vt 0.65 2.95
vt 0.975 2.95
vt 0.325 2.95
vt 0.65 5.9
vt 0.65 4.425
vt 0.325 4.425
vt 1.3 5.9
vt 1.3 4.425
vt 0.975 4.425
vt 1.3 3.6875
vt 0.975 3.6875
vt 0.325 3.6875
vt 2.6 5.9

vn -1 0 0
vn 0 0 -1
vn 1 0 0
vn 0 -1 0
vn 0 1 0
vn 0 0 1

usemtl woodTexture
f 43/63/22 42/66/22 40/67/22
f 42/66/22 38/65/22 40/67/22
f 42/66/22 41/61/22 38/65/22
f 44/75/24 46/61/24 37/74/24
f 38/73/24 44/75/24 37/74/24
f 38/73/24 41/72/24 44/75/24
f 47/75/25 43/72/25 40/76/25
f 40/76/25 39/65/25 47/75/25
f 39/65/25 48/77/25 47/75/25
f 39/65/25 49/61/25 48/77/25
f 37/74/26 46/61/26 50/66/26
f 39/78/26 37/74/26 50/66/26
f 52/80/26 39/78/26 50/66/26
f 51/79/26 39/78/26 52/80/26
f 39/78/26 51/79/26 49/63/26
f 44/69/23 45/70/23 54/82/23
f 54/82/23 53/81/23 44/69/23
f 44/69/23 53/81/23 46/61/23
f 46/61/23 53/81/23 55/83/23
f 50/66/23 46/61/23 55/83/23
f 49/63/23 57/86/23 48/84/23
f 49/63/23 51/79/23 57/86/23
f 57/86/23 56/85/23 48/84/23
f 48/84/23 59/89/23 47/87/23
f 48/84/23 56/85/23 59/89/23
f 59/89/23 58/88/23 47/87/23
f 47/87/23 58/88/23 43/93/23
f 58/88/23 42/71/23 43/93/23
f 58/88/23 60/90/23 42/71/23
f 60/90/23 45/70/23 42/71/23
f 40/64/21 38/62/21 37/61/21
f 37/61/21 39/63/21 40/64/21
f 41/68/23 42/71/23 45/70/23
f 45/70/23 44/69/23 41/68/23
f 58/88/23 59/89/23 61/91/23
f 61/91/23 60/90/23 58/88/23
f 45/70/23 60/90/23 61/91/23
f 61/91/23 54/82/23 45/70/23
f 57/86/23 51/79/23 52/80/23
f 52/80/23 62/92/23 57/86/23
f 55/83/23 62/92/23 52/80/23
f 52/80/23 50/66/23 55/83/23

g Handle
v -6.163 2.428 7.174
v -6.263 2.428 7.174
v -6.163 2.578 7.174
v -6.263 2.578 7.174
v -6.263 2.428 6.474
v -6.263 2.578 6.474
v -6.163 2.428 6.474
v -6.163 2.578 6.474

vt 0 0
vt -0.1 0
vt 0 0.15
vt -0.1 0.15
vt -0.7 0
vt -0.7 0.15
vt 0.1 0
vt 0.1 0.15
vt 0.7 0
vt 0.7 0.15
vt 0 -0.7
vt 0.1 -0.7
vt -0.1 -0.7

vn 0 0 1
vn -1 0 0
vn 0 0 -1
vn 1 0 0
vn 0 1 0
vn 0 -1 0

usemtl Grey_1
f 65/96/27 66/97/27 64/95/27 63/94/27
f 66/96/28 68/99/28 67/98/28 64/94/28
f 68/101/29 70/96/29 69/94/29 67/100/29
f 70/103/30 65/96/30 63/94/30 69/102/30
f 70/104/31 68/105/31 66/100/31 65/94/31
f 63/94/32 64/95/32 67/106/32 69/104/32

g Cylinder
v -6.372 2.558 7.075
v -6.174867 2.558 7.075
v -6.372 2.542052 7.11626
v -6.174867 2.542052 7.11626
v -6.372 2.503549 7.13335
v -6.174867 2.503549 7.13335
v -6.372 2.465047 7.11626
v -6.174867 2.465047 7.11626
v -6.372 2.449098 7.075
v -6.174867 2.449098 7.075
v -6.372 2.465047 7.03374
v -6.174867 2.465047 7.03374
v -6.372 2.503549 7.01665
v -6.174867 2.503549 7.01665
v -6.372 2.542052 7.03374
v -6.174867 2.542052 7.03374
v -6.372 2.503549 7.075
v -6.174867 2.503549 7.075

vt 0 0
vt 0 0.25
vt 0.05357568 0
vt 0.05357568 0.25
vt 0.03788373 0
vt 0.03788373 0.25
vt 0.09145941 0
vt 0.09145941 0.25
vt -0.05357568 0
vt -0.05357568 0.25
vt -0.09145942 0
vt -0.09145942 0.25
vt -0.03788373 0
vt -0.03788373 0.25
vt 0.07 0
vt 0.02050253 0.04949747
vt -0.07 0
vt -0.02050253 0.04949747
vt 0.07 0.07
vt -0.07 0.07
vt 0.1194975 0.04949747
vt -0.1194975 0.04949747
vt 0.14 -6.119594E-09
vt -0.14 -6.119594E-09
vt 0.1194975 -0.04949747
vt -0.1194975 -0.04949747
vt 0.07 -0.07
vt -0.07 -0.07
vt 0.02050253 -0.04949748
vt -0.02050253 -0.04949748

vn -6.9547E-07 0.7778701 -2.688914E-08
vn -4.917715E-07 0.5500372 0.589423
vn -1.121717E-14 1.254619E-08 0.83357
vn 4.917716E-07 -0.5500373 0.589423
vn 6.9547E-07 -0.7778701 -5.377827E-08
vn 4.917715E-07 -0.5500372 -0.589423
vn 3.36515E-14 -3.763857E-08 -0.83357
vn -4.917715E-07 0.5500372 -0.5894231
vn -0.7885301 -7.050007E-07 0
vn 0.7885301 7.050007E-07 0

usemtl Plastic
f 71/107/41 87/121/41 73/122/41
f 73/122/41 87/121/41 75/125/41
f 75/125/41 87/121/41 77/127/41
f 77/127/41 87/121/41 79/129/41
f 79/129/41 87/121/41 81/131/41
f 81/131/41 87/121/41 83/133/41
f 83/133/41 87/121/41 85/135/41
f 85/135/41 87/121/41 71/107/41
f 74/124/42 88/123/42 72/107/42
f 76/126/42 88/123/42 74/124/42
f 78/128/42 88/123/42 76/126/42
f 80/130/42 88/123/42 78/128/42
f 82/132/42 88/123/42 80/130/42
f 84/134/42 88/123/42 82/132/42
f 86/136/42 88/123/42 84/134/42
f 72/107/42 88/123/42 86/136/42
f 74/110/34 72/108/33 71/107/33
f 71/107/33 73/109/34 74/110/34
f 76/114/35 74/112/34 73/111/34
f 73/111/34 75/113/35 76/114/35
f 78/114/36 76/112/35 75/111/35
f 75/111/35 77/113/36 78/114/36
f 80/110/37 78/108/36 77/107/36
f 77/107/36 79/109/37 80/110/37
f 82/108/38 80/116/37 79/115/37
f 79/115/37 81/107/38 82/108/38
f 84/120/39 82/118/38 81/117/38
f 81/117/38 83/119/39 84/120/39
f 86/120/40 84/118/39 83/117/39
f 83/117/39 85/119/40 86/120/40
f 72/108/33 86/116/40 85/115/40
f 85/115/40 71/107/33 72/108/33

g Cylinder (1)
v -6.359002 2.71 7.08
v -6.340343 2.71 7.08
v -6.359002 2.65535 7.211937
v -6.340343 2.65535 7.211937
v -6.359002 2.523413 7.266587
v -6.340343 2.523413 7.266587
v -6.359001 2.391475 7.211937
v -6.340343 2.391475 7.211937
v -6.359001 2.336825 7.08
v -6.340343 2.336825 7.08
v -6.359001 2.391475 6.948062
v -6.340343 2.391475 6.948062
v -6.359002 2.523413 6.893413
v -6.340343 2.523413 6.893413
v -6.359002 2.65535 6.948062
v -6.340343 2.65535 6.948062
v -6.359002 2.523413 7.08
v -6.340343 2.523413 7.08

vt 0 0
vt 0 0.025
vt 0.1913417 0
vt 0.1913417 0.025
vt 0.135299 0
vt 0.135299 0.025
vt 0.3266407 0
vt 0.3266407 0.025
vt -0.1913417 0
vt -0.1913417 0.025
vt -0.3266407 0
vt -0.3266407 0.025
vt -0.135299 0
vt -0.135299 0.025
vt 0.25 0
vt 0.07322331 0.1767767
vt -0.25 0
vt -0.07322331 0.1767767
vt 0.25 0.25
vt -0.25 0.25
vt 0.4267767 0.1767767
vt -0.4267767 0.1767767
vt 0.5 -2.185569E-08
vt -0.5 -2.185569E-08
vt 0.4267767 -0.1767767
vt -0.4267767 -0.1767767
vt 0.25 -0.25
vt -0.25 -0.25
vt 0.07322334 -0.1767767
vt -0.07322334 -0.1767767

vn -6.672888E-07 0.74635 -4.815122E-08
vn -4.718444E-07 0.5277491 0.5277491
vn 0 0 0.74635
vn 4.718445E-07 -0.5277492 0.5277491
vn 6.672888E-07 -0.74635 -1.203781E-08
vn 4.718445E-07 -0.5277492 -0.5277491
vn 4.305054E-14 -4.815122E-08 -0.74635
vn -4.718444E-07 0.5277491 -0.5277492
vn -0.74635 -6.672888E-07 0
vn 0.74635 6.672888E-07 0

usemtl Plastic
f 89/137/51 105/151/51 91/152/51
f 91/152/51 105/151/51 93/155/51
f 93/155/51 105/151/51 95/157/51
f 95/157/51 105/151/51 97/159/51
f 97/159/51 105/151/51 99/161/51
f 99/161/51 105/151/51 101/163/51
f 101/163/51 105/151/51 103/165/51
f 103/165/51 105/151/51 89/137/51
f 92/154/52 106/153/52 90/137/52
f 94/156/52 106/153/52 92/154/52
f 96/158/52 106/153/52 94/156/52
f 98/160/52 106/153/52 96/158/52
f 100/162/52 106/153/52 98/160/52
f 102/164/52 106/153/52 100/162/52
f 104/166/52 106/153/52 102/164/52
f 90/137/52 106/153/52 104/166/52
f 92/140/44 90/138/43 89/137/43
f 89/137/43 91/139/44 92/140/44
f 94/144/45 92/142/44 91/141/44
f 91/141/44 93/143/45 94/144/45
f 96/144/46 94/142/45 93/141/45
f 93/141/45 95/143/46 96/144/46
f 98/140/47 96/138/46 95/137/46
f 95/137/46 97/139/47 98/140/47
f 100/138/48 98/146/47 97/145/47
f 97/145/47 99/137/48 100/138/48
f 102/150/49 100/148/48 99/147/48
f 99/147/48 101/149/49 102/150/49
f 104/150/50 102/148/49 101/147/49
f 101/147/49 103/149/50 104/150/50
f 90/138/43 104/146/50 103/145/50
f 103/145/50 89/137/43 90/138/43

g Handle
v -6.163 2.428 7.174
v -6.263 2.428 7.174
v -6.163 2.578 7.174
v -6.263 2.578 7.174
v -6.263 2.428 6.474
v -6.263 2.578 6.474
v -6.163 2.428 6.474
v -6.163 2.578 6.474

vt 0 0
vt -0.1 0
vt 0 0.15
vt -0.1 0.15
vt -0.7 0
vt -0.7 0.15
vt 0.1 0
vt 0.1 0.15
vt 0.7 0
vt 0.7 0.15
vt 0 -0.7
vt 0.1 -0.7
vt -0.1 -0.7

vn 0 0 1
vn -1 0 0
vn 0 0 -1
vn 1 0 0
vn 0 1 0
vn 0 -1 0

usemtl Grey_1
f 109/169/53 110/170/53 108/168/53 107/167/53
f 110/169/54 112/172/54 111/171/54 108/167/54
f 112/174/55 114/169/55 113/167/55 111/173/55
f 114/176/56 109/169/56 107/167/56 113/175/56
f 114/177/57 112/178/57 110/173/57 109/167/57
f 107/167/58 108/168/58 111/179/58 113/177/58

