# ProBuilder 4.5.2
# https://unity3d.com/unity/features/worldbuilding/probuilder
# 9/19/2021 7:44:37 PM

mtllib ./SittingChair.mtl
o SittingChair

g Cube (9)
v 0.2899451 0.977 11.02852
v -0.8853392 0.977 11.02852
v 0.2899451 0.977 11.27848
v -0.8853392 0.977 11.27848
v -0.9253941 1.003219 11.02852
v -0.9253941 1.772521 11.02852
v -0.9253941 1.003219 11.27848
v -0.9253941 1.772521 11.27848
v -0.8853392 1.79874 11.02852
v 0.2899451 1.79874 11.02852
v -0.8853392 1.79874 11.27848
v 0.2899451 1.79874 11.27848
v 0.33 1.772521 11.02852
v 0.33 1.003219 11.02852
v 0.33 1.772521 11.27848
v 0.33 1.003219 11.27848
v 0.2899451 1.003219 11.287
v -0.8853392 1.003219 11.287
v 0.2899451 1.772521 11.287
v -0.8853392 1.772521 11.287
v 0.2899451 1.772521 11.02
v -0.8853392 1.772521 11.02
v 0.2899451 1.003219 11.02
v -0.8853392 1.003219 11.02
v 0.2899451 0.5722982 11.2848
v -0.8853393 0.5722982 11.2848
v 0.2899451 0.9331466 11.2848
v -0.8853393 0.9331466 11.2848
v -0.9253942 0.5722982 11.24374
v -0.9253942 0.5722982 10.03907
v -0.9253942 0.9331466 11.24374
v -0.9253942 0.9331467 10.03907
v -0.8853393 0.5722983 9.998015
v 0.2899451 0.5722983 9.998015
v -0.8853393 0.9331467 9.998015
v 0.2899451 0.9331467 9.998015
v 0.33 0.5722982 10.03907
v 0.33 0.5722982 11.24374
v 0.33 0.9331467 10.03907
v 0.33 0.9331466 11.24374
v 0.2899451 0.9454447 11.24374
v -0.8853393 0.9454447 11.24374
v 0.2899451 0.9454448 10.03907
v -0.8853393 0.9454448 10.03907
v 0.2899451 0.5600001 10.03907
v -0.8853393 0.5600001 10.03907
v 0.2899451 0.5600001 11.24374
v -0.8853393 0.5600001 11.24374

vt -0.03190626 0.03190626
vt -0.9680938 0.03190626
vt -0.03190626 0.9680938
vt -0.9680938 0.9680938
vt 0.9680938 0.03190626
vt 0.03190626 0.03190626
vt 0.9680938 0.9680938
vt 0.03190626 0.9680938
vt 0.03190626 -0.03190626
vt 0.9680938 -0.03190626
vt 0.03190626 -0.9680938
vt 0.9680938 -0.9680938
vt -0.03190626 -0.9680938
vt -0.9680938 -0.9680938
vt -0.03190626 -0.03190626
vt -0.9680938 -0.03190626
vt -0.9680938 0.6845455
vt -0.03190626 0.6845455
vt -0.9680938 0.7296678
vt -0.03190626 0.7296678
vt 0.6845455 -0.03190626
vt 0.6845455 -0.9680938
vt 0.7296678 -0.03190626
vt 0.7296678 -0.9680938
vt 0.02256112 -0.9680938
vt 0.02256112 -0.03190626
vt -0.02256112 -0.9680938
vt -0.02256112 -0.03190626
vt 0.03190626 -0.02256113
vt 0.9680938 -0.02256113
vt 0.03190626 0.02256113
vt 0.9680938 0.02256113
vt 0.7296678 0.03190626
vt 0.7296678 0.9680938
vt 0.6845455 0.03190626
vt 0.6845455 0.9680938
vt -0.02256113 0.9680938
vt -0.02256113 0.03190626
vt 0.02256113 0.9680938
vt 0.02256113 0.03190626
vt 0.9680938 0.7296678
vt 0.03190626 0.7296678
vt 0.9680938 0.6845455
vt 0.03190626 0.6845455
vt -0.7296678 -0.03190626
vt -0.7296678 -0.9680938
vt -0.6845455 -0.03190626
vt -0.6845455 -0.9680938
vt -0.03190626 0.02256113
vt -0.9680938 0.02256113
vt -0.03190626 -0.02256113
vt -0.9680938 -0.02256113
vt -0.6845455 0.03190626
vt -0.6845455 0.9680938
vt -0.7296678 0.03190626
vt -0.7296678 0.9680938
vt -0.6845455 0.3952225
vt -0.7071066 0.4342995
vt -0.7296678 0.3952225
vt -0.02256113 0.8034708
vt 0 0.8425478
vt 0.02256113 0.8034708
vt 0.6845455 0.3952225
vt 0.7071066 0.4342995
vt 0.7296678 0.3952225
vt 0.02256112 -0.01302567
vt 0 0.02605134
vt -0.02256112 -0.01302567
vt 0.6845455 0.421274
vt 0.7071066 0.382197
vt 0.7296677 0.421274
vt 0.02256113 0.01302567
vt 0 -0.02605135
vt -0.02256113 0.01302567
vt -0.02256112 0.8295221
vt 0 0.790445
vt 0.02256112 0.8295221
vt -0.7296677 0.421274
vt -0.7071066 0.382197
vt -0.6845455 0.421274
vt -0.955683 0.5774723
vt -0.02674544 0.6851438
vt -0.9732544 0.7290697
vt -0.04431689 0.8367411
vt 0.6846189 -0.03008771
vt 0.646814 -0.9665705
vt 0.7673993 -0.0334295
vt 0.7295943 -0.9699123
vt 0.02248758 -0.9699123
vt 0.06029278 -0.0334295
vt -0.06029278 -0.9665705
vt -0.02248758 -0.03008771
vt 0.04431671 -0.1296339
vt 0.9732544 -0.02196312
vt 0.0267455 0.02196312
vt 0.9556832 0.1296339
vt 0.955683 0.8367412
vt 0.02674544 0.7290697
vt 0.9732544 0.6851439
vt 0.04431689 0.5774724
vt 0.2832204 0.111196
vt 0.01873964 0.9806571
vt -0.01873973 0.01934314
vt -0.2832193 0.8888044
vt 0.9903263 0.111196
vt 0.7258451 0.9806566
vt 0.6883672 0.0193429
vt 0.4238869 0.8888044
vt -0.7295944 -0.03008771
vt -0.7673994 -0.9665705
vt -0.6468139 -0.0334295
vt -0.6846191 -0.9699123
vt -0.4238864 0.1111961
vt -0.6883671 0.980657
vt -0.7258462 0.01934302
vt -0.9903269 0.8888041
vt -0.04431683 0.1296342
vt -0.9732544 0.021963
vt -0.0267455 -0.021963
vt -0.9556831 -0.1296342
vt -0.6829738 0.4174831
vt -0.7127469 0.4440688
vt -0.735308 0.4049917
vt -0.02285798 0.8108062
vt -0.004818116 0.8527477
vt 0.0289472 0.8313546
vt 0.6789054 0.4049919
vt 0.7014665 0.4440687
vt 0.7312393 0.4174833
vt 0.02894723 0.01485801
vt -0.004818082 0.03625107
vt -0.02285802 -0.005690336
vt -0.02413261 0.8072617
vt 0.005640209 0.7806761
vt 0.02820134 0.8197532
vt 0.7299645 0.4139385
vt 0.7119247 0.3719969
vt 0.6781594 0.3933902
vt -0.7360538 0.3933902
vt -0.7022885 0.3719971
vt -0.6842486 0.4139387
vt 0.02820143 0.00325644
vt 0.005640298 -0.0358206
vt -0.02413276 -0.009234905

vn 0.4607309 -0.7023935 -0.09798929
vn -0.460731 -0.7023935 -0.0979893
vn 0.4607309 -0.7023934 0.09798941
vn -0.460731 -0.7023934 0.0979894
vn -1.073065 -0.3015794 -0.09798931
vn -1.073065 0.3015795 -0.09798934
vn -1.073065 -0.3015794 0.09798937
vn -1.073065 0.3015794 0.09798931
vn -0.4607309 0.7023935 -0.09798936
vn 0.4607308 0.7023935 -0.09798937
vn -0.4607309 0.7023935 0.09798929
vn 0.4607308 0.7023935 0.09798931
vn 1.073065 0.3015795 -0.09798936
vn 1.073065 -0.3015794 -0.09798931
vn 1.073065 0.3015795 0.09798934
vn 1.073065 -0.3015794 0.09798939
vn 0.4607308 -0.3015794 0.228222
vn -0.4607309 -0.3015794 0.228222
vn 0.4607308 0.3015795 0.228222
vn -0.4607309 0.3015794 0.228222
vn 0.4607309 0.3015795 -0.228222
vn -0.460731 0.3015795 -0.228222
vn 0.4607309 -0.3015794 -0.228222
vn -0.460731 -0.3015795 -0.228222
vn 0.6431352 -0.5695854 0.1353828
vn -0.6431349 -0.5695854 0.1353828
vn 0.6431351 0.5695854 0.1353827
vn -0.6431348 0.5695854 0.1353828
vn -1.053762 -0.4409659 0.02306638
vn -1.053761 -0.4409663 -0.02306636
vn -1.053761 0.4409661 0.02306634
vn -1.053761 0.4409661 -0.0230664
vn -0.6431345 -0.5695854 -0.1353829
vn 0.6431349 -0.5695853 -0.1353828
vn -0.6431345 0.5695856 -0.1353828
vn 0.6431349 0.5695856 -0.1353828
vn 1.053761 -0.4409661 -0.02306635
vn 1.053762 -0.4409658 0.02306635
vn 1.053762 0.4409658 -0.02306638
vn 1.053762 0.4409658 0.0230663
vn 0.2728519 0.8011526 0.01264026
vn -0.2728516 0.8011527 0.01264027
vn 0.2728519 0.8011526 -0.01264036
vn -0.2728516 0.8011527 -0.01264036
vn 0.2728516 -0.8011526 -0.01264033
vn -0.2728509 -0.8011527 -0.01264033
vn 0.2728523 -0.8011525 0.01264035
vn -0.2728516 -0.8011526 0.01264035

usemtl SittingChair
f 4/57/4 18/58/18 7/59/7
f 16/62/16 17/61/17 3/60/3
f 12/65/12 19/64/19 15/63/15
f 8/66/8 20/67/20 11/68/11
f 13/69/13 21/70/21 10/71/10
f 1/74/1 23/73/23 14/72/14
f 9/75/9 22/76/22 6/77/6
f 5/78/5 24/79/24 2/80/2
f 28/121/28 42/122/42 31/123/31
f 40/126/40 41/125/41 27/124/27
f 36/129/36 43/128/43 39/127/39
f 32/130/32 44/131/44 35/132/35
f 33/133/33 46/134/46 30/135/30
f 37/138/37 45/137/45 34/136/34
f 29/139/29 48/140/48 26/141/26
f 25/144/25 47/143/47 38/142/38
f 4/4/4 2/2/2 1/1/1
f 1/1/1 3/3/3 4/4/4
f 8/4/8 6/2/6 5/1/5
f 5/1/5 7/3/7 8/4/8
f 12/8/12 10/6/10 9/5/9
f 9/5/9 11/7/11 12/8/12
f 16/8/16 14/6/14 13/5/13
f 13/5/13 15/7/15 16/8/16
f 20/12/20 18/10/18 17/9/17
f 17/9/17 19/11/19 20/12/20
f 24/16/24 22/14/22 21/13/21
f 21/13/21 23/15/23 24/16/24
f 18/19/18 4/17/4 3/18/3
f 3/18/3 17/20/17 18/19/18
f 17/23/17 16/21/16 15/22/15
f 15/22/15 19/24/19 17/23/17
f 20/27/20 8/25/8 7/26/7
f 7/26/7 18/28/18 20/27/20
f 19/31/19 12/29/12 11/30/11
f 11/30/11 20/32/20 19/31/19
f 21/27/21 13/25/13 14/26/14
f 14/26/14 23/28/23 21/27/21
f 13/35/13 10/33/10 12/34/12
f 12/34/12 15/36/15 13/35/13
f 16/39/16 3/37/3 1/38/1
f 1/38/1 14/40/14 16/39/16
f 22/43/22 9/41/9 10/42/10
f 10/42/10 21/44/21 22/43/22
f 9/38/9 6/40/6 8/39/8
f 8/39/8 11/37/11 9/38/9
f 24/47/24 5/45/5 6/46/6
f 6/46/6 22/48/22 24/47/24
f 23/51/23 1/49/1 2/50/2
f 2/50/2 24/52/24 23/51/23
f 5/55/5 2/53/2 4/54/4
f 4/54/4 7/56/7 5/55/5
f 28/4/28 26/2/26 25/1/25
f 25/1/25 27/3/27 28/4/28
f 32/4/32 30/2/30 29/1/29
f 29/1/29 31/3/31 32/4/32
f 36/8/36 34/6/34 33/5/33
f 33/5/33 35/7/35 36/8/36
f 40/8/40 38/6/38 37/5/37
f 37/5/37 39/7/39 40/8/40
f 44/12/44 42/10/42 41/9/41
f 41/9/41 43/11/43 44/12/44
f 48/16/48 46/14/46 45/13/45
f 45/13/45 47/15/47 48/16/48
f 42/83/42 28/81/28 27/82/27
f 27/82/27 41/84/41 42/83/42
f 41/87/41 40/85/40 39/86/39
f 39/86/39 43/88/43 41/87/41
f 44/91/44 32/89/32 31/90/31
f 31/90/31 42/92/42 44/91/44
f 43/95/43 36/93/36 35/94/35
f 35/94/35 44/96/44 43/95/43
f 46/99/46 33/97/33 34/98/34
f 34/98/34 45/100/45 46/99/46
f 33/103/33 30/101/30 32/102/32
f 32/102/32 35/104/35 33/103/33
f 37/107/37 34/105/34 36/106/36
f 36/106/36 39/108/39 37/107/37
f 48/111/48 29/109/29 30/110/30
f 30/110/30 46/112/46 48/111/48
f 29/115/29 26/113/26 28/114/28
f 28/114/28 31/116/31 29/115/29
f 45/91/45 37/89/37 38/90/38
f 38/90/38 47/92/47 45/91/45
f 40/102/40 27/104/27 25/103/25
f 25/103/25 38/101/38 40/102/40
f 47/119/47 25/117/25 26/118/26
f 26/118/26 48/120/48 47/119/47

g Cube (7)
v -0.902 0.486 11.01
v -1.021303 0.486 11.01
v -0.902 0.6145602 11.01
v -1.021303 0.6145602 11.01
v -1.021303 0.486 9.900001
v -1.021303 0.6145602 9.900001
v -0.902 0.486 9.900001
v -0.902 0.6145602 9.900001
v 0.4400001 1.2056 11.2906
v 0.3206974 1.2056 11.2906
v 0.4400001 1.2056 10.88875
v 0.3206974 1.2056 10.88875
v 0.3206974 0.001028219 11.2906
v 0.3206974 0.001028219 10.88875
v 0.4400001 0.001028219 11.2906
v 0.4400001 0.001028219 10.88875
v -0.902 1.2056 11.2906
v -1.021303 1.2056 11.2906
v -0.902 1.2056 10.88875
v -1.021303 1.2056 10.88875
v -1.021303 0.001028219 11.2906
v -1.021303 0.001028219 10.88875
v -0.902 0.001028219 11.2906
v -0.902 0.001028219 10.88875
v -0.902 1.21 11.2906
v -1.021303 1.21 11.2906
v -0.902 1.33856 11.2906
v -1.021303 1.33856 11.2906
v -1.021303 1.21 9.899992
v -1.021303 1.33856 9.899992
v -0.902 1.21 9.899992
v -0.902 1.33856 9.899992
v -0.902 1.2056 10.029
v -1.021303 1.2056 10.029
v -0.902 1.2056 9.90044
v -1.021303 1.2056 9.90044
v -1.021303 0.001028219 10.029
v -1.021303 0.001028219 9.90044
v -0.902 0.001028219 10.029
v -0.902 0.001028219 9.90044
v 0.4400001 1.21 11.2906
v 0.3206974 1.21 11.2906
v 0.4400001 1.33856 11.2906
v 0.3206974 1.33856 11.2906
v 0.3206974 1.21 9.899992
v 0.3206974 1.33856 9.899992
v 0.4400001 1.21 9.899992
v 0.4400001 1.33856 9.899992
v 0.4400001 1.2056 10.029
v 0.3206974 1.2056 10.029
v 0.4400001 1.2056 9.90044
v 0.3206974 1.2056 9.90044
v 0.3206974 0.001028219 10.029
v 0.3206974 0.001028219 9.90044
v 0.4400001 0.001028219 10.029
v 0.4400001 0.001028219 9.90044
v 0.4400001 0.45 11.01
v 0.3206974 0.45 11.01
v 0.4400001 0.5785602 11.01
v 0.3206974 0.5785602 11.01
v 0.3206974 0.45 9.900001
v 0.3206974 0.5785602 9.900001
v 0.4400001 0.45 9.900001
v 0.4400001 0.5785602 9.900001

vt 0 0
vt -1 0
vt 0 1
vt -1 1
vt 1 0
vt 1 1
vt 0 -1
vt 1 -1
vt -1 -1
vt 0 0.9999999
vt -0.9999999 1
vt 1 0.9999999
vt -0.9999999 5.960464E-08
vt 0.9999999 0
vt 0.9999999 0.9999999
vt 0.9999999 -1
vt -0.9999999 -1
vt 0.9999999 1
vt -0.9999999 0.9999998
vt -1 0.9999998

vn 0 0 1.11
vn -0.1193028 0 0
vn 0 0 -1.11
vn 0.1193028 0 0
vn 0 0.1285602 0
vn 0 -0.1285602 0

usemtl deskBottom
f 51/147/49 52/148/49 50/146/49 49/145/49
f 52/147/50 54/148/50 53/146/50 50/145/50
f 54/150/51 56/147/51 55/145/51 53/149/51
f 56/150/52 51/147/52 49/145/52 55/149/52
f 56/151/53 54/152/53 52/149/53 51/145/53
f 49/145/54 50/146/54 53/153/54 55/151/54
f 59/154/53 60/148/53 58/146/53 57/145/53
f 60/147/50 62/155/50 61/146/50 58/145/50
f 62/156/54 64/147/54 63/145/54 61/149/54
f 64/150/52 59/147/52 57/145/52 63/149/52
f 64/151/51 62/152/51 60/149/51 59/145/51
f 57/145/49 58/146/49 61/153/49 63/151/49
f 67/154/53 68/155/53 66/157/53 65/145/53
f 68/147/50 70/155/50 69/146/50 66/145/50
f 70/159/54 72/147/54 71/145/54 69/158/54
f 72/150/52 67/147/52 65/145/52 71/149/52
f 72/151/51 70/160/51 68/158/51 67/145/51
f 65/145/49 66/157/49 69/161/49 71/151/49
f 75/147/49 76/155/49 74/157/49 73/145/49
f 76/147/50 78/148/50 77/146/50 74/145/50
f 78/162/51 80/147/51 79/145/51 77/158/51
f 80/150/52 75/147/52 73/145/52 79/149/52
f 80/151/53 78/160/53 76/158/53 75/145/53
f 73/145/54 74/157/54 77/161/54 79/151/54
f 83/154/53 84/163/53 82/157/53 81/145/53
f 84/154/50 86/164/50 85/146/50 82/145/50
f 86/159/54 88/154/54 87/145/54 85/158/54
f 88/156/52 83/154/52 81/145/52 87/149/52
f 88/151/51 86/160/51 84/158/51 83/145/51
f 81/145/49 82/157/49 85/161/49 87/151/49
f 91/147/49 92/148/49 90/146/49 89/145/49
f 92/147/50 94/148/50 93/146/50 90/145/50
f 94/150/51 96/147/51 95/145/51 93/149/51
f 96/150/52 91/147/52 89/145/52 95/149/52
f 96/151/53 94/152/53 92/149/53 91/145/53
f 89/145/54 90/146/54 93/153/54 95/151/54
f 99/154/53 100/164/53 98/146/53 97/145/53
f 100/154/50 102/164/50 101/146/50 98/145/50
f 102/156/54 104/154/54 103/145/54 101/149/54
f 104/156/52 99/154/52 97/145/52 103/149/52
f 104/151/51 102/152/51 100/149/51 99/145/51
f 97/145/49 98/146/49 101/153/49 103/151/49
f 107/147/49 108/148/49 106/146/49 105/145/49
f 108/147/50 110/148/50 109/146/50 106/145/50
f 110/150/51 112/147/51 111/145/51 109/149/51
f 112/150/52 107/147/52 105/145/52 111/149/52
f 112/151/53 110/152/53 108/149/53 107/145/53
f 105/145/54 106/146/54 109/153/54 111/151/54

