# ProBuilder 4.5.2
# https://unity3d.com/unity/features/worldbuilding/probuilder
# 12/14/2021 3:53:20 PM

mtllib ./Trashcan.mtl
o Trashcan

g Trashcan
v -12.25395 0.631111 7.740236
v -12.25395 1.031111 7.740236
v -12.17357 0.631111 8.040236
v -12.17357 1.031111 8.040236
v -11.95395 0.631111 8.259851
v -11.95395 1.031111 8.259851
v -11.65395 0.631111 8.340237
v -11.65395 1.031111 8.340237
v -11.35395 0.631111 8.259851
v -11.35395 1.031111 8.259851
v -11.13434 0.631111 8.040236
v -11.13434 1.031111 8.040236
v -11.05395 0.631111 7.740236
v -11.05395 1.031111 7.740236
v -11.13434 0.631111 7.440236
v -11.13434 1.031111 7.440236
v -11.35395 0.631111 7.220621
v -11.35395 1.031111 7.220621
v -11.65395 0.631111 7.140236
v -11.65395 1.031111 7.140236
v -11.95395 0.631111 7.220621
v -11.95395 1.031111 7.220621
v -12.17357 0.631111 7.440236
v -12.17357 1.031111 7.440236
v -12.25395 1.431111 7.740236
v -12.17357 1.431111 8.040236
v -11.95395 1.431111 8.259851
v -11.65395 1.431111 8.340237
v -11.35395 1.431111 8.259851
v -11.13434 1.431111 8.040236
v -11.05395 1.431111 7.740236
v -11.13434 1.431111 7.440236
v -11.35395 1.431111 7.220621
v -11.65395 1.431111 7.140236
v -11.95395 1.431111 7.220621
v -12.17357 1.431111 7.440236
v -12.25395 1.831111 7.740236
v -12.17357 1.831111 8.040236
v -11.95395 1.831111 8.259851
v -11.65395 1.831111 8.340237
v -11.35395 1.831111 8.259851
v -11.13434 1.831111 8.040236
v -11.05395 1.831111 7.740236
v -11.13434 1.831111 7.440236
v -11.35395 1.831111 7.220621
v -11.65395 1.831111 7.140236
v -11.95395 1.831111 7.220621
v -12.17357 1.831111 7.440236
v -11.65395 0.631111 7.740236
v -12.20734 1.831111 7.737007
v -12.13465 1.831111 8.00827
v -12.14229 0.6780503 7.728063
v -12.07701 0.6780503 7.971702
v -11.89866 0.6780503 7.728063
v -11.86601 0.6780503 7.849882
v -11.65502 0.6780503 7.728063
v -11.89866 0.6780503 8.150058
v -11.93607 1.831111 8.206848
v -11.77684 0.6780503 7.939061
v -11.65502 0.6780503 8.215343
v -11.66481 1.831111 8.279533
v -11.65502 0.6780503 7.971702
v -11.39355 1.831111 8.206848
v -11.41138 0.6780503 8.150058
v -11.5332 0.6780503 7.939061
v -11.23302 0.6780503 7.971702
v -11.19497 1.831111 8.00827
v -11.44402 0.6780503 7.849882
v -11.16774 0.6780503 7.728063
v -11.12228 1.831111 7.737007
v -11.41138 0.6780503 7.728063
v -11.23302 0.6780503 7.484425
v -11.19497 1.831111 7.465744
v -11.44402 0.6780503 7.606244
v -11.41138 0.6780503 7.306068
v -11.39355 1.831111 7.267165
v -11.5332 0.6780503 7.517066
v -11.65502 0.6780503 7.240785
v -11.66481 1.831111 7.19448
v -11.65502 0.6780503 7.484425
v -11.93607 1.831111 7.267165
v -11.89866 0.6780503 7.306068
v -11.77684 0.6780503 7.517066
v -12.07701 0.6780503 7.484425
v -12.13465 1.831111 7.465744
v -11.86601 0.6780503 7.606244

vt 0 0
vt 0 0.4
vt 0.3105829 0
vt 0.3105829 0.4
vt 0.2689727 0
vt 0.2689727 0.4
vt 0.5795556 0
vt 0.5795556 0.4
vt 0.4242641 0
vt 0.4242641 0.4
vt 0.7348469 0
vt 0.7348469 0.4
vt -0.3105828 0
vt -0.3105828 0.4
vt -0.5795556 0
vt -0.5795556 0.4
vt -0.2689727 0
vt -0.2689727 0.4
vt -0.7348469 0
vt -0.7348469 0.4
vt -0.4242641 0
vt -0.4242641 0.4
vt 0 0.8
vt 0.3105829 0.8
vt 0.2689727 0.8
vt 0.5795556 0.8
vt 0.4242641 0.8
vt 0.7348469 0.8
vt -0.3105828 0.8
vt -0.5795556 0.8
vt -0.2689727 0.8
vt -0.7348469 0.8
vt -0.4242641 0.8
vt 0 1.2
vt 0.3105829 1.2
vt 0.2689727 1.2
vt 0.5795556 1.2
vt 0.4242641 1.2
vt 0.7348469 1.2
vt -0.3105828 1.2
vt -0.5795556 1.2
vt -0.2689727 1.2
vt -0.7348469 1.2
vt -0.4242641 1.2
vt 0.6 0
vt 0.08038479 0.3
vt 0.3 0.5196153
vt 0.6 0.6
vt 0.9000001 0.5196152
vt 1.119615 0.3
vt 1.2 -5.245367E-08
vt 1.119615 -0.3
vt 0.9 -0.5196153
vt 0.6 -0.6
vt 0.3000001 -0.5196153
vt 0.08038479 -0.3000001
vt 0.3610874 0.09197217
vt 0.3166332 0.0898803
vt 0.2473157 0.3620242
vt 0.2844282 0.3929457
vt -0.09235884 -0.005835949
vt -0.154617 0.2385937
vt -0.3247061 5.604598E-05
vt -0.3558356 0.1222704
vt -0.5570542 0.005948065
vt -0.1618476 0.2445959
vt -0.3356314 0.4274087
vt -0.03978628 0.7275422
vt 0.1537019 0.5240018
vt -0.02236584 0.7783707
vt 0.1916205 0.5532672
vt -0.3674371 0.136163
vt -0.4543286 0.2275701
vt -0.5730267 0.0277311
vt -0.3500782 0.4139588
vt -0.5928516 0.4823955
vt -0.4859296 0.8880551
vt -0.2156313 0.8118604
vt -0.4967492 0.9462367
vt -0.1978162 0.8619708
vt -0.4714644 0.2157589
vt -0.5928516 0.2499764
vt -0.5928516 0.01755855
vt -0.6991447 0.9163061
vt -0.6883253 0.8586829
vt -0.9586204 0.7824768
vt -0.9980742 0.8320274
vt -0.6007617 0.4520207
vt -0.8435293 0.3835738
vt -0.6007617 0.2196362
vt -0.7221455 0.1854137
vt -0.6007617 -0.01274687
vt -0.831394 0.3678734
vt -1.005141 0.1850224
vt -1.302713 0.4663304
vt -1.109268 0.6699132
vt -1.361776 0.4944919
vt -1.147839 0.7196421
vt -0.7127251 0.1681285
vt -0.7995984 0.07670234
vt -0.5940562 -0.0316168
vt -1.049494 -0.0350796
vt -1.441729 0.06153649
vt -1.372452 0.3336903
vt -0.9872736 0.2093589
vt -1.506857 0.06308454
vt -1.430241 0.3640691
vt -0.7861678 0.09309696
vt -0.8172771 -0.02912178
vt -0.585062 -0.02316401
vt -0.9871615 -0.2335601
vt -1.372801 -0.3401682
vt -1.442069 -0.06801257
vt -1.049374 0.01088003
vt -1.430582 -0.3641052
vt -1.507188 -0.06311814
vt -0.8171879 0.004906184
vt -0.7860827 -0.1173136
vt -0.585004 -0.001067614
vt -1.004975 -0.2083763
vt -0.8312647 -0.3912618
vt -1.110136 -0.676693
vt -1.30354 -0.4730718
vt -1.148699 -0.7200983
vt -1.362592 -0.4949059
vt -0.7994757 -0.1001577
vt -0.7126204 -0.191601
vt -0.5939761 0.008060377
vt -0.6007599 -0.4749116
vt -0.6888601 -0.8662208
vt -0.9591445 -0.7899772
vt -0.8435179 -0.4064319
vt -0.6996791 -0.9176548
vt -0.9985966 -0.8333341
vt -0.7221389 -0.2084054
vt -0.6007599 -0.2426446
vt -0.6007599 -0.01037849
vt -0.1972405 -0.8636137
vt -0.4961615 -0.9479221
vt -0.4853424 -0.8959249
vt -0.2150548 -0.8196924
vt -0.5928057 -0.5056114
vt -0.350042 -0.4371417
vt -0.5928057 -0.2733105
vt -0.4714234 -0.2390763
vt -0.5928057 -0.04101055
vt -0.1617695 -0.2684037
vt 0.1547921 -0.5312073
vt -0.03865531 -0.7347869
vt -0.3355167 -0.4512518
vt 0.1927027 -0.554152
vt -0.02123858 -0.7792982
vt -0.4541889 -0.2514988
vt -0.3673157 -0.1600744
vt -0.572862 -0.05174545
vt 0.2849405 -0.3930629
vt 0.2478332 -0.368582
vt 0.3171411 -0.09643609
vt 0.3615891 -0.09208652
vt -0.154574 -0.2628749
vt -0.09232449 -0.0184435
vt -0.3557647 -0.1465673
vt -0.3246396 -0.02435184
vt -0.5569555 -0.03026019

vn -1 0 6.170727E-08
vn -0.8660254 0 0.5
vn -0.5 0 0.8660254
vn 4.628045E-08 0 1
vn 0.5 0 0.8660254
vn 0.8660254 0 0.5
vn 1 0 -7.713408E-08
vn 0.8660254 0 -0.5000001
vn 0.4999999 0 -0.8660254
vn 0 0 -1
vn -0.4999999 0 -0.8660255
vn -0.8660253 0 -0.5000001
vn 0 -1 0
vn 0 1 0
vn 0.9643869 0.0564048 -0.2584114
vn 0.7059306 0.05767699 -0.7059287
vn 0.2584205 0.05588528 -0.9644147
vn -0.2584772 0.05150591 -0.9646432
vn -0.7063628 0.04571327 -0.7063723
vn -0.9651527 0.04005325 -0.2586041
vn -0.9652992 0.03604645 0.2586467
vn -0.7066769 0.03477035 0.7066815
vn -0.2586477 0.03656698 0.9652793
vn 0.258602 0.04095399 0.9651154
vn 0.7063349 0.04675269 0.7063322
vn 0.9645972 0.05240732 0.2584682

usemtl Grey_1
f 1/1/13 49/45/13 3/46/13
f 3/46/13 49/45/13 5/47/13
f 5/47/13 49/45/13 7/48/13
f 7/48/13 49/45/13 9/49/13
f 9/49/13 49/45/13 11/50/13
f 11/50/13 49/45/13 13/51/13
f 13/51/13 49/45/13 15/52/13
f 15/52/13 49/45/13 17/53/13
f 17/53/13 49/45/13 19/54/13
f 19/54/13 49/45/13 21/55/13
f 21/55/13 49/45/13 23/56/13
f 23/56/13 49/45/13 1/1/13
f 55/64/14 56/65/14 54/63/14
f 59/73/14 56/74/14 55/72/14
f 62/82/14 56/83/14 59/81/14
f 65/91/14 56/92/14 62/90/14
f 68/100/14 56/101/14 65/99/14
f 71/109/14 56/110/14 68/108/14
f 74/118/14 56/119/14 71/117/14
f 77/127/14 56/128/14 74/126/14
f 80/136/14 56/137/14 77/135/14
f 83/145/14 56/146/14 80/144/14
f 86/154/14 56/155/14 83/153/14
f 54/163/14 56/164/14 86/162/14
f 4/4/2 2/2/1 1/1/1
f 1/1/1 3/3/2 4/4/2
f 6/8/3 4/6/2 3/5/2
f 3/5/2 5/7/3 6/8/3
f 8/12/4 6/10/3 5/9/3
f 5/9/3 7/11/4 8/12/4
f 10/12/5 8/10/4 7/9/4
f 7/9/4 9/11/5 10/12/5
f 12/8/6 10/6/5 9/5/5
f 9/5/5 11/7/6 12/8/6
f 14/4/7 12/2/6 11/1/6
f 11/1/6 13/3/7 14/4/7
f 16/2/8 14/14/7 13/13/7
f 13/13/7 15/1/8 16/2/8
f 18/18/9 16/16/8 15/15/8
f 15/15/8 17/17/9 18/18/9
f 20/22/10 18/20/9 17/19/9
f 17/19/9 19/21/10 20/22/10
f 22/22/11 20/20/10 19/19/10
f 19/19/10 21/21/11 22/22/11
f 24/18/12 22/16/11 21/15/11
f 21/15/11 23/17/12 24/18/12
f 2/2/1 24/14/12 23/13/12
f 23/13/12 1/1/1 2/2/1
f 26/24/2 25/23/1 2/2/1
f 2/2/1 4/4/2 26/24/2
f 27/26/3 26/25/2 4/6/2
f 4/6/2 6/8/3 27/26/3
f 28/28/4 27/27/3 6/10/3
f 6/10/3 8/12/4 28/28/4
f 29/28/5 28/27/4 8/10/4
f 8/10/4 10/12/5 29/28/5
f 30/26/6 29/25/5 10/6/5
f 10/6/5 12/8/6 30/26/6
f 31/24/7 30/23/6 12/2/6
f 12/2/6 14/4/7 31/24/7
f 32/23/8 31/29/7 14/14/7
f 14/14/7 16/2/8 32/23/8
f 33/31/9 32/30/8 16/16/8
f 16/16/8 18/18/9 33/31/9
f 34/33/10 33/32/9 18/20/9
f 18/20/9 20/22/10 34/33/10
f 35/33/11 34/32/10 20/20/10
f 20/20/10 22/22/11 35/33/11
f 36/31/12 35/30/11 22/16/11
f 22/16/11 24/18/12 36/31/12
f 25/23/1 36/29/12 24/14/12
f 24/14/12 2/2/1 25/23/1
f 38/35/2 37/34/1 25/23/1
f 25/23/1 26/24/2 38/35/2
f 39/37/3 38/36/2 26/25/2
f 26/25/2 27/26/3 39/37/3
f 40/39/4 39/38/3 27/27/3
f 27/27/3 28/28/4 40/39/4
f 41/39/5 40/38/4 28/27/4
f 28/27/4 29/28/5 41/39/5
f 42/37/6 41/36/5 29/25/5
f 29/25/5 30/26/6 42/37/6
f 43/35/7 42/34/6 30/23/6
f 30/23/6 31/24/7 43/35/7
f 44/34/8 43/40/7 31/29/7
f 31/29/7 32/23/8 44/34/8
f 45/42/9 44/41/8 32/30/8
f 32/30/8 33/31/9 45/42/9
f 46/44/10 45/43/9 33/32/9
f 33/32/9 34/33/10 46/44/10
f 47/44/11 46/43/10 34/32/10
f 34/32/10 35/33/11 47/44/11
f 48/42/12 47/41/11 35/30/11
f 35/30/11 36/31/12 48/42/12
f 37/34/1 48/40/12 36/29/12
f 36/29/12 25/23/1 37/34/1
f 51/59/14 50/58/14 37/57/14
f 37/57/14 38/60/14 51/59/14
f 53/62/15 52/61/15 50/58/15
f 50/58/15 51/59/15 53/62/15
f 55/64/14 54/63/14 52/61/14
f 52/61/14 53/62/14 55/64/14
f 58/68/16 57/67/16 53/66/16
f 53/66/16 51/69/16 58/68/16
f 39/70/14 58/68/14 51/69/14
f 51/69/14 38/71/14 39/70/14
f 57/67/14 59/73/14 55/72/14
f 55/72/14 53/66/14 57/67/14
f 61/77/17 60/76/17 57/75/17
f 57/75/17 58/78/17 61/77/17
f 40/79/14 61/77/14 58/78/14
f 58/78/14 39/80/14 40/79/14
f 60/76/14 62/82/14 59/81/14
f 59/81/14 57/75/14 60/76/14
f 63/86/14 61/85/14 40/84/14
f 40/84/14 41/87/14 63/86/14
f 63/86/18 64/89/18 60/88/18
f 60/88/18 61/85/18 63/86/18
f 64/89/14 65/91/14 62/90/14
f 62/90/14 60/88/14 64/89/14
f 67/95/19 66/94/19 64/93/19
f 64/93/19 63/96/19 67/95/19
f 42/97/14 67/95/14 63/96/14
f 63/96/14 41/98/14 42/97/14
f 64/93/14 66/94/14 68/100/14
f 68/100/14 65/99/14 64/93/14
f 67/104/20 70/103/20 69/102/20
f 69/102/20 66/105/20 67/104/20
f 42/107/14 43/106/14 70/103/14
f 70/103/14 67/104/14 42/107/14
f 66/105/14 69/102/14 71/109/14
f 71/109/14 68/108/14 66/105/14
f 70/113/21 73/112/21 72/111/21
f 72/111/21 69/114/21 70/113/21
f 43/116/14 44/115/14 73/112/14
f 73/112/14 70/113/14 43/116/14
f 72/111/14 74/118/14 71/117/14
f 71/117/14 69/114/14 72/111/14
f 76/122/22 75/121/22 72/120/22
f 72/120/22 73/123/22 76/122/22
f 45/124/14 76/122/14 73/123/14
f 73/123/14 44/125/14 45/124/14
f 72/120/14 75/121/14 77/127/14
f 77/127/14 74/126/14 72/120/14
f 76/131/23 79/130/23 78/129/23
f 78/129/23 75/132/23 76/131/23
f 45/134/14 46/133/14 79/130/14
f 79/130/14 76/131/14 45/134/14
f 75/132/14 78/129/14 80/136/14
f 80/136/14 77/135/14 75/132/14
f 79/140/14 46/139/14 47/138/14
f 47/138/14 81/141/14 79/140/14
f 78/142/24 79/140/24 81/141/24
f 81/141/24 82/143/24 78/142/24
f 80/144/14 78/142/14 82/143/14
f 82/143/14 83/145/14 80/144/14
f 81/149/25 85/148/25 84/147/25
f 84/147/25 82/150/25 81/149/25
f 47/152/14 48/151/14 85/148/14
f 85/148/14 81/149/14 47/152/14
f 82/150/14 84/147/14 86/154/14
f 86/154/14 83/153/14 82/150/14
f 50/158/14 85/157/14 48/156/14
f 48/156/14 37/159/14 50/158/14
f 52/161/26 84/160/26 85/157/26
f 85/157/26 50/158/26 52/161/26
f 86/162/14 84/160/14 52/161/14
f 52/161/14 54/163/14 86/162/14

