# ProBuilder 4.5.2
# https://unity3d.com/unity/features/worldbuilding/probuilder
# 12/8/2021 11:02:48 PM

mtllib ./Wall_Light.mtl
o Wall Light

g Cube (2)
v -2.498366 3.842132 1.089035
v -2.571663 3.842132 1.089035
v -2.498366 3.98969 1.089035
v -2.571663 3.98969 1.089035
v -2.571663 3.842132 0.957993
v -2.571663 3.98969 0.957993
v -2.498366 3.842132 0.957993
v -2.498366 3.98969 0.957993
v -1.9585 3.842132 1.089035
v -2.031796 3.842132 1.089035
v -1.9585 3.98969 1.089035
v -2.031796 3.98969 1.089035
v -2.031796 3.842132 0.957993
v -2.031796 3.98969 0.957993
v -1.9585 3.842132 0.957993
v -1.9585 3.98969 0.957993
v -2.030517 3.864 1.016
v -2.500297 3.864 1.016
v -2.030517 3.878691 1.051468
v -2.500297 3.878691 1.051468
v -2.030517 3.91416 1.06616
v -2.500297 3.91416 1.06616
v -2.030517 3.949628 1.051468
v -2.500297 3.949628 1.051468
v -2.030517 3.964319 1.016
v -2.500298 3.964319 1.016
v -2.030517 3.949628 0.9805318
v -2.500297 3.949628 0.9805318
v -2.030517 3.91416 0.9658403
v -2.500297 3.91416 0.9658403
v -2.030517 3.878691 0.9805318
v -2.500297 3.878691 0.9805318
v -2.030517 3.91416 1.016
v -2.500297 3.91416 1.016

vt 0 0
vt -1 0
vt 0 1
vt -1 1
vt 1 0
vt 1 1
vt 0 -1
vt 1 -1
vt -1 -1
vt 0.3826833 0
vt 0.3826833 1
vt 0.2705982 0
vt 0.2705982 1
vt 0.6532815 0
vt 0.6532815 1
vt 0 0.9999996
vt -0.3826833 0
vt -0.3826833 1
vt -0.6532817 0
vt -0.6532817 1
vt -0.2705979 0
vt -0.2705979 1
vt 0.01193716 -0.02459179
vt 0.5101863 0.004944503
vt 0.1357467 0.3572598
vt -0.5 -1.490116E-08
vt -0.1464458 0.3535534
vt 0.1464466 0.353553
vt 0.4999999 0
vt 0.5 0.5
vt -0.136623 0.3424913
vt -0.5184745 0.01157449
vt -0.4889383 0.5098236
vt 0.5110617 0.5098236
vt 0.4815254 0.01157451
vt 0.863377 0.3424913
vt -0.5 0.4999999
vt -0.5 0
vt -0.8535534 0.353553
vt 0.8535542 0.3535534
vt -0.8642533 0.3572598
vt -0.4898137 0.004944533
vt -0.9880627 -0.02459195
vt 0.9880626 0.02459216
vt 0.4898136 -0.004944563
vt 0.8642535 -0.3572598
vt -0.8535542 -0.3535533
vt 0.8535534 -0.3535536
vt 0.5 0
vt 0.4999999 -0.5
vt -0.8633772 -0.3424917
vt -0.4815251 -0.01157469
vt -0.5110618 -0.5098238
vt 0.4889382 -0.5098237
vt 0.5184748 -0.01157469
vt 0.136623 -0.3424917
vt -0.5 -0.5
vt -0.1464467 -0.3535536
vt 0.1464458 -0.3535534
vt -0.1357466 -0.3572599
vt -0.5101864 -0.004944563
vt -0.01193732 0.02459216

vn 0 0 0.1310422
vn -0.07329647 0 0
vn 0 0 -0.1310422
vn 0.07329647 0 0
vn 0 0.1475581 0
vn 0 -0.1475581 0
vn 0 -0.1086251 0.08869155
vn 0 0.1086251 0.08869154
vn 0 0.1086251 -0.08869158
vn 0 -0.1086251 -0.08869159

usemtl deskTop
f 3/3/1 4/4/1 2/2/1 1/1/1
f 4/3/2 6/4/2 5/2/2 2/1/2
f 6/6/3 8/3/3 7/1/3 5/5/3
f 8/6/4 3/3/4 1/1/4 7/5/4
f 8/7/5 6/8/5 4/5/5 3/1/5
f 1/1/6 2/2/6 5/9/6 7/7/6
f 11/3/1 12/4/1 10/2/1 9/1/1
f 12/3/2 14/4/2 13/2/2 10/1/2
f 14/6/3 16/3/3 15/1/3 13/5/3
f 16/6/4 11/3/4 9/1/4 15/5/4
f 16/7/5 14/8/5 12/5/5 11/1/5
f 9/1/6 10/2/6 13/9/6 15/7/6

usemtl lightMaterial
f 17/23/4 33/24/4 19/25/4
f 19/28/4 33/29/4 21/30/4
f 21/34/4 33/35/4 23/36/4
f 23/40/4 33/29/4 25/5/4
f 25/44/4 33/45/4 27/46/4
f 27/48/4 33/49/4 29/50/4
f 29/54/4 33/55/4 31/56/4
f 31/59/4 33/49/4 17/1/4
f 20/27/2 34/26/2 18/1/2
f 22/33/2 34/32/2 20/31/2
f 24/39/2 34/38/2 22/37/2
f 26/43/2 34/42/2 24/41/2
f 28/47/2 34/38/2 26/2/2
f 30/53/2 34/52/2 28/51/2
f 32/58/2 34/26/2 30/57/2
f 18/62/2 34/61/2 32/60/2
f 20/11/7 18/3/6 17/1/6
f 17/1/6 19/10/7 20/11/7
f 22/15/1 20/13/7 19/12/7
f 19/12/7 21/14/1 22/15/1
f 24/15/8 22/13/1 21/12/1
f 21/12/1 23/14/8 24/15/8
f 26/11/5 24/16/8 23/1/8
f 23/1/8 25/10/5 26/11/5
f 28/16/9 26/18/5 25/17/5
f 25/17/5 27/1/9 28/16/9
f 30/22/3 28/20/9 27/19/9
f 27/19/9 29/21/3 30/22/3
f 32/22/10 30/20/3 29/19/3
f 29/19/3 31/21/10 32/22/10
f 18/3/6 32/18/10 31/17/10
f 31/17/10 17/1/6 18/3/6

