# ProBuilder 4.5.2
# https://unity3d.com/unity/features/worldbuilding/probuilder
# 9/19/2021 7:25:52 PM

mtllib ./Wall.mtl
o Wall

g Cube
v -13.9907 0.0428 4.2769
v -14.30764 0.0428 4.2769
v -13.9907 4.986311 4.2769
v -14.30764 4.986311 4.2769
v -14.30764 0.0428 -0.3153639
v -14.30764 4.986311 -0.3153639
v -13.9907 0.0428 -0.3153639
v -13.9907 4.986311 -0.3153639

vt 0 0
vt -1 0
vt 0 1
vt -1 1
vt 1 0
vt 1 1
vt 0 -1
vt 1 -1
vt -1 -1

vn 0 0 4.592264
vn -0.3169426 0 0
vn 0 0 -4.592264
vn 0.3169426 0 0
vn 0 4.943511 0
vn 0 -4.943511 0

usemtl ProBuilderDefault
f 3/3/1 4/4/1 2/2/1 1/1/1
f 4/3/2 6/4/2 5/2/2 2/1/2
f 6/6/3 8/3/3 7/1/3 5/5/3
f 8/6/4 3/3/4 1/1/4 7/5/4
f 8/7/5 6/8/5 4/5/5 3/1/5
f 1/1/6 2/2/6 5/9/6 7/7/6

