# ProBuilder 4.5.2
# https://unity3d.com/unity/features/worldbuilding/probuilder
# 9/15/2021 1:39:31 PM

mtllib ./Computer.mtl
o Computer

g Cube
v -0.1219425 0.1535152 -0.0918169
v -0.8780575 0.1535152 -0.0918169
v -0.1219425 0.8464848 -0.0918169
v -0.8780575 0.8464848 -0.0918169
v 0 1 0
v -1 1 0
v -0.1657372 0.8442835 -0.8613424
v -0.8342628 0.8442835 -0.8613424
v 0 0 0
v -1 0 0
v -0.9171314 0.07785827 -0.4306712
v -0.8756971 0.1167874 -0.6460068
v -0.8342628 0.1557165 -0.8613424
v -0.9585657 0.03892913 -0.2153356
v -0.6671314 0.1557165 -0.8613424
v -0.5 0.1557165 -0.8613424
v -0.3328686 0.1557165 -0.8613424
v -0.1657372 0.1557165 -0.8613424
v -0.1243029 0.1167874 -0.6460068
v -0.08286858 0.07785827 -0.4306712
v -0.04143429 0.03892913 -0.2153356
v -0.3121514 0.1167874 -0.6460068
v -0.2914343 0.07785827 -0.4306712
v -0.5 0.1167874 -0.6460068
v -0.5 -0.3835156 -0.6392584
v -0.312151 -0.3835156 -0.6392584
v -0.6878486 0.1167874 -0.6460068
v -0.7085657 0.07785827 -0.4306712
v -0.7085648 -0.3757668 -0.4239235
v -0.687849 -0.3835156 -0.6392584
v -0.7292829 0.03892913 -0.2153356
v -0.75 0 0
v -0.5 0 0
v -0.5 0.03892913 -0.2153356
v -0.7292824 -0.3781445 -0.2085876
v -0.2707171 0.03892913 -0.2153356
v -0.25 0 0
v -0.2914352 -0.3757668 -0.4239235
v -0.5 -0.3757668 -0.4239235
v -0.5 -0.3781445 -0.2085876
v -0.2707176 -0.3781445 -0.2085876
v -0.2914352 -0.1403562 -0.4230194
v -0.312151 -0.13884 -0.6383543
v -0.5 -0.13884 -0.6383543
v -0.687849 -0.13884 -0.6383543
v -0.7085648 -0.1403562 -0.4230194
v -0.2707176 -0.1427339 -0.2076836
v -0.7292824 -0.1427339 -0.2076836
v -0.5 -0.1427339 -0.2076836
v 0.007185936 -0.1402473 -0.4517489
v 0.007185936 -0.3756579 -0.452653
v -0.5 -0.1438697 0.0923143
v -0.5 -0.3792804 0.09141022
v 0.004981995 -0.1387312 -0.6371355
v 0.004981995 -0.3834067 -0.6380396
v -0.499273 -0.1377316 -0.9383514
v -0.499273 -0.3824071 -0.9392555
v -0.9864693 -0.1387312 -0.6398449
v -0.9866295 -0.1402473 -0.4517488
v -0.9864693 -0.3834067 -0.640749
v -0.9828644 -0.3756579 -0.4526529
v -0.687122 -0.1377316 -0.9383514
v -0.687122 -0.3824071 -0.9392555
v -0.7292824 -0.1438697 0.0923143
v -0.7292824 -0.3792804 0.09141022
v -0.9857423 -0.3822983 -0.9407461
v -0.9857423 -0.1376228 -0.939842
v -0.9867268 -0.142625 -0.236413
v -0.9770489 -0.1437609 0.06358528
v -0.9770489 -0.3791715 0.0626812
v -0.9867268 -0.3780356 -0.2373171
v -0.2707176 -0.3792804 0.09141022
v -0.2707176 -0.1438697 0.0923143
v 0.02790356 -0.3791715 0.06268072
v 0.02790356 -0.1437609 0.0635848
v 0.01643372 -0.3780356 -0.2373171
v -0.311424 -0.1377316 -0.9383514
v -0.311424 -0.3824071 -0.9392555
v 0.005708694 -0.1376228 -0.9371328
v 0.005708694 -0.3822983 -0.9380369
v 0.009191513 -0.142625 -0.236413

vt -0.1219425 0.1535152
vt -0.8780575 0.1535152
vt -0.1219425 0.8464848
vt -0.8780575 0.8464848
vt 0 0.1778998
vt 1 0.1778998
vt 0.1657372 -0.697405
vt 0.8342628 -0.697405
vt 0 1
vt 0 0
vt -0.1526444 0.8464848
vt -0.1526444 0.1535152
vt -0.7988665 0
vt -0.7988665 1
vt -0.6462221 0.1535152
vt -0.6462221 0.8464848
vt -1 0.8582128
vt 0 0.8582128
vt -0.8780575 0.6793351
vt -0.1219425 0.6793351
vt -0.2496203 0.07785827
vt -0.468906 0.1167874
vt -0.6881917 0.1557165
vt -0.6881917 0.8442835
vt 0.1889512 1
vt 0.1889512 -2.633503E-09
vt -0.03033454 0.03892913
vt 0.1657372 0.8442835
vt 0.8342628 0.8442835
vt 0.8342628 0.1557165
vt 0.6671314 0.1557165
vt 0.5 0.1557165
vt 0.3328686 0.1557165
vt 0.1657372 0.1557165
vt 0.8771429 0.8442835
vt 0.8771429 0.1557165
vt 0.6578572 0.1167874
vt 0.4385715 0.07785827
vt 0.2192857 0.03892913
vt -0.08286858 -0.4376524
vt -0.1243029 -0.6564786
vt -0.3121514 -0.6564786
vt -0.2914343 -0.4376524
vt -0.1657372 -0.8753048
vt -0.3328686 -0.8753048
vt -0.5 -0.8753048
vt -0.5 -0.6564786
vt -0.5 -0.6439913
vt -0.312151 -0.6439913
vt -0.8342628 -0.8753048
vt -0.8756971 -0.6564786
vt -0.6878486 -0.6564786
vt -0.6671314 -0.8753048
vt -0.9171314 -0.4376524
vt -0.7085657 -0.4376524
vt -0.7085648 -0.4285765
vt -0.687849 -0.6439913
vt -0.9585657 -0.2188262
vt -0.7292829 -0.2188262
vt -1 0
vt -0.75 0
vt -0.5 0
vt -0.5 -0.2188262
vt -0.7292824 -0.2132871
vt -0.04143429 -0.2188262
vt -0.2707171 -0.2188262
vt -0.25 0
vt -0.2914352 -0.4285765
vt -0.5 -0.4285765
vt -0.5 -0.2132871
vt -0.2707176 -0.2132871
vt -0.8780575 0.1788778
vt -0.1219425 0.1788778
vt 0.4566785 0.07703647
vt 0.6730084 0.1159656
vt 0.4490622 -0.1411792
vt 0.6653913 -0.1396629
vt 0.3121514 0.1360655
vt 0.312151 -0.1196765
vt 0.5 0.1360655
vt 0.6878486 0.1360655
vt 0.5 -0.1196765
vt 0.687849 -0.1196765
vt -0.5769333 0.1192529
vt -0.3606034 0.08032374
vt -0.5693161 -0.1363756
vt -0.3529871 -0.137892
vt 0.2403487 0.03810733
vt 0.2327321 -0.1435571
vt -0.1442735 0.0413946
vt -0.1366569 -0.1402699
vt -0.7292829 0.04795702
vt -0.7292824 -0.1338671
vt -0.5 0.04795702
vt -0.2707171 0.04795702
vt -0.5 -0.1338671
vt -0.2707176 -0.1338671
vt 0.451483 -0.1403508
vt 0.4523869 -0.375757
vt -0.500132 -0.1435219
vt -0.5001307 -0.3789343
vt 0.6368734 -0.1388462
vt 0.6377772 -0.3835171
vt 0.5015107 -0.1411932
vt 0.5015129 -0.3858704
vt -0.6471054 -0.1356106
vt -0.4590156 -0.1371218
vt -0.6480095 -0.3802848
vt -0.4598919 -0.3725432
vt 0.6893592 -0.1411916
vt 0.6893614 -0.3858687
vt -0.7294142 -0.1435231
vt -0.7294129 -0.3789355
vt 0.6878499 -0.637439
vt 0.9864702 -0.6389303
vt 0.9879843 -0.3857627
vt 0.9879822 -0.1410856
vt -0.707009 -0.4371233
vt -0.6862615 -0.6525945
vt -0.9813067 -0.4658709
vt -0.9848796 -0.6541241
vt 0.7085657 -0.4220988
vt 0.7292833 -0.206752
vt 0.9866304 -0.4508283
vt 0.9867277 -0.2354816
vt -0.9771392 -0.1435244
vt -0.9771379 -0.3789368
vt -0.7295849 -0.2044355
vt -0.7088654 -0.4197843
vt -0.9870292 -0.2331667
vt -0.9831649 -0.4485156
vt -0.2708485 -0.378933
vt -0.2708499 -0.1435207
vt 0.02781356 -0.3789313
vt 0.02781226 -0.1435189
vt -0.2911754 -0.4197719
vt -0.2704561 -0.2044231
vt 0.007445638 -0.4485031
vt 0.01669506 -0.2331541
vt 0.2914362 -0.4220988
vt -0.007185009 -0.4508283
vt 0.3136622 -0.1411949
vt 0.3136644 -0.385872
vt -0.003472429 -0.1410843
vt -0.003470271 -0.3857615
vt -0.3122296 -0.6526272
vt -0.2915123 -0.4371531
vt 0.00490337 -0.6514077
vt 0.0071089 -0.4658624
vt 0.0164336 -0.235884
vt -0.2707177 -0.2071544
vt 0.02790344 0.06411593
vt -0.2707177 0.09284563
vt -0.009190571 -0.2354815
vt -0.02790261 0.06451733
vt 0.2361548 -0.1427116
vt 0.2369 -0.3781628
vt -0.06418097 -0.1439228
vt -0.06327711 -0.3793291
vt 0.2707186 -0.206752
vt 0.2707186 0.09324691
vt -0.5 -0.2071544
vt -0.5 0.09284563
vt 0.500001 -0.206752
vt 0.500001 0.09324691
vt -0.7292824 -0.2071544
vt -0.7292824 0.09284563
vt 0.9770498 0.06451777
vt 0.7292833 0.0932469
vt -0.9867266 -0.235884
vt -0.9770488 0.0641164
vt -0.2445904 -0.3749035
vt -0.2436864 -0.1394941
vt 0.05547106 -0.3760631
vt 0.05637512 -0.1406537
vt -0.004981078 -0.6362209
vt -0.005707785 -0.9362191
vt -0.312288 -0.6378378
vt 0.004844932 -0.636619
vt -0.3115606 -0.9378369
vt 0.005572028 -0.9366183
vt 0.9376866 -0.3824541
vt 0.9367828 -0.1377832
vt 0.3121519 -0.637439
vt 0.3114249 -0.9374369
vt -0.5 -0.637837
vt -0.499273 -0.9378361
vt -0.311424 -0.9378361
vt 0.5000009 -0.637439
vt 0.4992739 -0.9374369
vt -0.687849 -0.637837
vt -0.687122 -0.9378361
vt -0.9863365 -0.6393264
vt -0.9856099 -0.9393255
vt -0.6869897 -0.9378349
vt 0.6871229 -0.9374369
vt 0.9857432 -0.9389282
vt -0.947089 -0.1345115
vt -0.947993 -0.3791858

vn 0 0 1
vn 0 0.9840486 -0.1778998
vn -0.6015084 0 0.7988665
vn 0.6015084 0 0.7988665
vn 0 -0.513294 0.8582128
vn -0.9819865 0 -0.1889511
vn 0 0 -1
vn 0.9819865 0 -0.1889511
vn 0 -0.9840486 -0.1778998
vn 0 -0.9993532 0.03596139
vn 0 -0.9997437 0.004626396
vn 0 -0.999939 -0.0110411
vn 0 -0.9995484 0.02029389
vn 0 0.513294 0.8582128
vn 0.9953532 -0.003604879 -0.09622363
vn 0.995369 -0.003124557 -0.09607589
vn 0.9953775 -0.003204303 -0.09598552
vn 0.9953984 -0.002865429 -0.0957798
vn 0 -0.02992282 -0.9995522
vn -0.9953499 -0.002880463 -0.096282
vn -0.995362 -0.003209061 -0.0961457
vn -0.9953758 -0.003595047 -0.09598901
vn 0.9953253 -0.004067158 -0.09649415
vn -0.9953654 -0.003711053 -0.09609195
vn -0.9953912 -0.004038421 -0.09581192
vn 0 0.04208487 0.999114
vn 0.9994981 0.01033106 -0.02125355
vn 0.9996459 8.478536E-05 -0.02222698
vn 0 -0.003840423 0.9999926
vn 0.9999632 1.792061E-05 -0.004732965
vn 0 0.003695005 -0.9999931
vn -0.9999983 6.050736E-06 -0.001637534
vn -0.9998487 -0.01068363 0.006113575
vn -0.9999171 -0.004010911 0.003530583
vn -0.9997953 -0.01066172 0.0004198613
vn 0.002496426 0.003694982 -0.9999869
vn -0.05759056 -0.003827644 0.9966649
vn 0.0001688445 0.9999887 0.004539389
vn 0.0001450646 0.9999822 0.005630895
vn 0.004992852 0.003694959 -0.9999807
vn -0.004121635 -0.9993589 0.03556508
vn -0.002345704 -0.9992554 0.0383684
vn -0.0005697733 -0.9991519 0.04117171
vn -0.0002846186 0.9999607 0.008700661
vn -0.0003100599 0.9999714 0.006673764
vn -0.0006641105 0.9999486 0.01002337
vn -0.0004044294 0.9999658 0.007413379
vn -0.1151811 -0.003814864 0.9933372
vn 0.0008006787 -0.9999396 -0.01096407
vn 0.000758122 -0.9999389 -0.0110275
vn 0.04788284 -0.003831598 0.9976946
vn 0.09576568 -0.003822772 0.9953966
vn -0.0006912881 -0.9999396 -0.01097459
vn -0.0007224477 -0.9999391 -0.01101007
vn 0.0005813421 0.9999513 0.009671826
vn 0.001920549 0.003694991 -0.9999895
vn 0.003841099 0.003694977 -0.9999858
vn 0.002290944 -0.9992371 0.03882534
vn 0.004376953 -0.9991202 0.041709
vn 3.09537E-07 -0.9999928 -0.003786298
vn -3.010031E-07 0.9999928 0.003786255
vn 0.998538 0.03085563 -0.03553778
vn 0.9988563 0.01550569 -0.03804616
vn 0.9984301 0.01553762 -0.05015557
vn 0.99927 0.000146723 -0.03820462
vn -0.9996597 -2.747779E-05 0.007154832
vn -0.9996679 -0.004042026 0.011481
vn -0.9994801 -0.000123826 0.03224256
vn 0.9999971 -8.950523E-06 0.002422314
vn -0.0001559383 0.9999843 0.005255201
vn -0.9999971 8.954199E-06 -0.002423309

usemtl Computer_Color
f 14/27/6 10/26/6 6/25/6
f 11/21/6 14/27/6 6/25/6
f 8/24/6 13/23/6 12/22/6
f 8/24/6 12/22/6 11/21/6
f 6/25/6 8/24/6 11/21/6
f 16/32/7 8/29/7 7/28/7
f 16/32/7 15/31/7 8/29/7
f 15/31/7 13/30/7 8/29/7
f 7/28/7 17/33/7 16/32/7
f 7/28/7 18/34/7 17/33/7
f 20/38/8 7/35/8 5/9/8
f 20/38/8 19/37/8 7/35/8
f 19/37/8 18/36/8 7/35/8
f 5/9/8 21/39/8 20/38/8
f 5/9/8 9/10/8 21/39/8
f 1/73/14 37/67/14 9/10/14
f 33/62/14 37/67/14 1/73/14
f 1/73/14 2/72/14 33/62/14
f 2/72/14 32/61/14 33/62/14
f 2/72/14 10/60/14 32/61/14
f 40/70/12 38/68/11 41/71/12
f 40/70/12 39/69/13 38/68/11
f 39/69/13 26/49/10 38/68/11
f 39/69/13 25/48/10 26/49/10
f 29/56/11 30/57/10 39/69/13
f 30/57/10 25/48/10 39/69/13
f 35/64/12 29/56/11 40/70/12
f 29/56/11 39/69/13 40/70/12
f 79/144/57 78/143/56 77/142/56
f 79/144/57 80/145/57 78/143/56
f 78/143/56 56/104/31 77/142/56
f 78/143/56 57/105/31 56/104/31
f 57/105/31 62/110/36 56/104/31
f 57/105/31 63/111/36 62/110/36
f 66/116/40 62/110/36 63/111/36
f 66/116/40 67/117/40 62/110/36
f 74/134/52 73/133/51 72/132/51
f 74/134/52 75/135/52 73/133/51
f 53/101/29 73/133/51 52/100/29
f 53/101/29 72/132/51 73/133/51
f 65/113/37 52/100/29 64/112/37
f 65/113/37 53/101/29 52/100/29
f 69/126/48 65/113/37 64/112/37
f 69/126/48 70/127/48 65/113/37
f 59/124/46 48/123/45 46/122/44
f 59/124/46 68/125/47 48/123/45
f 58/115/39 46/122/44 45/114/38
f 58/115/39 59/124/46 46/122/44
f 62/196/61 58/115/39 45/114/38
f 62/196/61 67/197/61 58/115/39
f 56/190/61 45/114/38 44/189/61
f 56/190/61 62/196/61 45/114/38
f 77/185/61 44/189/61 43/184/70
f 77/185/61 56/190/61 44/189/61
f 79/177/61 43/184/70 54/176/39
f 79/177/61 77/185/61 43/184/70
f 50/141/44 43/184/70 42/140/55
f 50/141/44 54/176/39 43/184/70
f 69/168/61 48/123/45 68/125/47
f 69/168/61 64/169/61 48/123/45
f 64/169/61 49/164/61 48/123/45
f 64/169/61 52/165/61 49/164/61
f 52/165/61 47/160/39 49/164/61
f 52/165/61 73/161/61 47/160/39
f 73/161/61 81/154/47 47/160/39
f 73/161/61 75/155/61 81/154/47
f 81/154/47 42/140/55 47/160/39
f 81/154/47 50/141/44 42/140/55
f 75/158/64 76/157/63 81/156/62
f 75/158/64 74/159/65 76/157/63
f 76/157/63 50/98/27 81/156/62
f 76/157/63 51/99/28 50/98/27
f 51/99/28 54/102/30 50/98/27
f 51/99/28 55/103/30 54/102/30
f 80/182/69 54/102/30 55/103/30
f 80/182/69 79/183/69 54/102/30
f 44/82/19 27/81/19 24/80/19
f 44/82/19 45/83/19 27/81/19
f 43/79/19 24/80/19 22/78/19
f 43/79/19 44/82/19 24/80/19
f 42/76/17 22/75/16 23/74/15
f 42/76/17 43/77/18 22/75/16
f 47/89/15 23/74/15 36/88/23
f 47/89/15 42/76/17 23/74/15
f 49/96/26 36/95/26 34/94/26
f 49/96/26 47/97/26 36/95/26
f 48/93/26 34/94/26 31/92/26
f 48/93/26 49/96/26 34/94/26
f 45/86/21 28/85/21 27/84/20
f 45/86/21 46/87/22 28/85/21
f 46/87/22 31/90/24 28/85/21
f 46/87/22 48/91/25 31/90/24
f 70/174/68 68/173/67 71/172/66
f 70/174/68 69/175/68 68/173/67
f 60/108/34 59/107/33 58/106/32
f 60/108/34 61/109/35 59/107/33
f 61/109/35 68/173/67 59/107/33
f 61/109/35 71/172/66 68/173/67
f 67/198/71 60/108/34 58/106/32
f 67/198/71 66/199/71 60/108/34
f 8/8/2 6/6/2 5/5/2
f 5/5/2 7/7/2 8/8/2
f 1/12/3 9/10/3 5/9/3
f 5/9/3 3/11/3 1/12/3
f 4/16/4 6/14/4 10/13/4
f 10/13/4 2/15/4 4/16/4
f 3/20/5 5/18/5 6/17/5
f 6/17/5 4/19/5 3/20/5
f 22/42/9 19/41/9 20/40/9
f 20/40/9 23/43/9 22/42/9
f 17/45/9 18/44/9 19/41/9
f 19/41/9 22/42/9 17/45/9
f 16/46/9 17/45/9 22/42/9
f 22/42/9 24/47/9 16/46/9
f 13/50/9 15/53/9 27/52/9
f 27/52/9 12/51/9 13/50/9
f 12/51/9 27/52/9 28/55/9
f 28/55/9 11/54/9 12/51/9
f 24/47/9 27/52/9 15/53/9
f 15/53/9 16/46/9 24/47/9
f 11/54/9 28/55/9 31/59/9
f 31/59/9 14/58/9 11/54/9
f 14/58/9 31/59/9 32/61/9
f 32/61/9 10/60/9 14/58/9
f 33/62/9 32/61/9 31/59/9
f 31/59/9 34/63/9 33/62/9
f 36/66/9 21/65/9 9/10/9
f 9/10/9 37/67/9 36/66/9
f 23/43/9 20/40/9 21/65/9
f 21/65/9 36/66/9 23/43/9
f 34/63/9 36/66/9 37/67/9
f 37/67/9 33/62/9 34/63/9
f 60/121/43 30/119/42 29/118/41
f 29/118/41 61/120/42 60/121/43
f 61/131/50 29/129/49 35/128/49
f 35/128/49 71/130/49 61/131/50
f 76/139/54 41/137/53 38/136/53
f 38/136/53 51/138/53 76/139/54
f 51/149/59 38/147/58 26/146/10
f 26/146/10 55/148/58 51/149/59
f 72/153/60 41/151/60 76/150/60
f 76/150/60 74/152/60 72/153/60
f 53/163/60 40/162/60 41/151/60
f 41/151/60 72/153/60 53/163/60
f 65/167/60 35/166/60 40/162/60
f 40/162/60 53/163/60 65/167/60
f 70/171/60 71/170/60 35/166/60
f 35/166/60 65/167/60 70/171/60
f 80/181/60 55/179/60 26/178/60
f 26/178/60 78/180/60 80/181/60
f 78/188/60 26/178/60 25/186/60
f 25/186/60 57/187/60 78/188/60
f 57/187/60 25/186/60 30/191/60
f 30/191/60 63/192/60 57/187/60
f 63/195/60 30/191/60 60/193/60
f 60/193/60 66/194/60 63/195/60

usemtl Computer_Screen
f 3/3/1 4/4/1 2/2/1 1/1/1

