# ProBuilder 4.5.2
# https://unity3d.com/unity/features/worldbuilding/probuilder
# 9/20/2021 11:14:41 AM

mtllib ./Computer.mtl
o Computer

g Computer (1)
v -33.95386 0.5370303 11.14999
v -33.19826 0.5370303 11.12208
v -33.95386 1.23 11.14999
v -33.19826 1.23 11.12208
v -34.07911 1.383515 11.06274
v -33.07979 1.383515 11.02583
v -33.88169 1.227799 11.91738
v -33.21362 1.227799 11.8927
v -34.07911 0.3835151 11.06274
v -33.07979 0.3835151 11.02583
v -33.14671 0.4613734 11.45926
v -33.18016 0.5003025 11.67598
v -33.21362 0.5392317 11.8927
v -33.11325 0.4224442 11.24255
v -33.38064 0.5392317 11.89887
v -33.54765 0.5392317 11.90504
v -33.71467 0.5392317 11.91121
v -33.88169 0.5392317 11.91738
v -33.93105 0.5003025 11.70372
v -33.9804 0.4613734 11.49006
v -34.02975 0.4224442 11.2764
v -33.74332 0.5003025 11.69679
v -33.77198 0.4613734 11.48236
v -33.5556 0.5003025 11.68985
v -33.55585 -4.768372E-07 11.68311
v -33.74357 -4.768372E-07 11.69004
v -33.36788 0.5003025 11.68292
v -33.35513 0.4613734 11.46696
v -33.35538 0.007748276 11.46022
v -33.36813 -4.768372E-07 11.67617
v -33.34237 0.4224442 11.25101
v -33.32962 0.3835151 11.03506
v -33.57945 0.3835151 11.04428
v -33.5715 0.4224442 11.25947
v -33.34262 0.005370587 11.24427
v -33.80063 0.4224442 11.26794
v -33.82928 0.3835151 11.05351
v -33.77222 0.007748276 11.47562
v -33.5638 0.007748276 11.46792
v -33.57175 0.005370587 11.25273
v -33.80088 0.005370587 11.26119
v -33.77226 0.2431589 11.47472
v -33.74361 0.244675 11.68914
v -33.55589 0.244675 11.6822
v -33.36816 0.244675 11.67527
v -33.35541 0.2431589 11.45932
v -33.80091 0.2407812 11.26029
v -33.34266 0.2407812 11.24336
v -33.57178 0.2407812 11.25183
v -34.06961 0.2432677 11.51445
v -34.06958 0.007857144 11.51535
v -33.58286 0.2396453 10.95203
v -33.58282 0.004234701 10.95294
v -34.06057 0.2447839 11.69963
v -34.06054 0.000108391 11.70053
v -33.54554 0.2457835 11.98202
v -33.54551 0.001107961 11.98293
v -33.06969 0.2447839 11.66574
v -33.07648 0.2432677 11.47776
v -33.06966 0.000108391 11.66664
v -33.0802 0.007857144 11.47881
v -33.35782 0.2457835 11.97509
v -33.35778 0.001107961 11.97599
v -33.35373 0.2396453 10.94357
v -33.3537 0.004234701 10.94447
v -33.05931 0.001216829 11.96646
v -33.05935 0.2458923 11.96556
v -33.08433 0.2408901 11.26257
v -33.10507 0.2397542 10.96313
v -33.10504 0.004343569 10.96404
v -33.08429 0.005479455 11.26347
v -33.81195 0.004234701 10.9614
v -33.81199 0.2396453 10.9605
v -34.10931 0.004343569 11.00113
v -34.10934 0.2397542 11.00023
v -34.08677 0.005479455 11.3005
v -33.73326 0.2457835 11.98896
v -33.73323 0.001107961 11.98986
v -34.05022 0.2458923 11.99945
v -34.05019 0.001216829 12.00035
v -34.07957 0.2408901 11.29933

vt -0.1219425 0.1535152
vt -0.8780575 0.1535152
vt -0.1219425 0.8464848
vt -0.8780575 0.8464848
vt 0 0.1778998
vt 1 0.1778998
vt 0.1657372 -0.697405
vt 0.8342628 -0.697405
vt 0 1
vt 0 0
vt -0.1526444 0.8464848
vt -0.1526444 0.1535152
vt -0.7988665 0
vt -0.7988665 1
vt -0.6462221 0.1535152
vt -0.6462221 0.8464848
vt -1 0.8582128
vt 0 0.8582128
vt -0.8780575 0.6793351
vt -0.1219425 0.6793351
vt -0.2496203 0.07785827
vt -0.468906 0.1167874
vt -0.6881917 0.1557165
vt -0.6881917 0.8442835
vt 0.1889512 1
vt 0.1889512 -2.633503E-09
vt -0.03033454 0.03892913
vt 0.1657372 0.8442835
vt 0.8342628 0.8442835
vt 0.8342628 0.1557165
vt 0.6671314 0.1557165
vt 0.5 0.1557165
vt 0.3328686 0.1557165
vt 0.1657372 0.1557165
vt 0.8771429 0.8442835
vt 0.8771429 0.1557165
vt 0.6578572 0.1167874
vt 0.4385715 0.07785827
vt 0.2192857 0.03892913
vt -0.08286858 -0.4376524
vt -0.1243029 -0.6564786
vt -0.3121514 -0.6564786
vt -0.2914343 -0.4376524
vt -0.1657372 -0.8753048
vt -0.3328686 -0.8753048
vt -0.5 -0.8753048
vt -0.5 -0.6564786
vt -0.5 -0.6439913
vt -0.312151 -0.6439913
vt -0.8342628 -0.8753048
vt -0.8756971 -0.6564786
vt -0.6878486 -0.6564786
vt -0.6671314 -0.8753048
vt -0.9171314 -0.4376524
vt -0.7085657 -0.4376524
vt -0.7085648 -0.4285765
vt -0.687849 -0.6439913
vt -0.9585657 -0.2188262
vt -0.7292829 -0.2188262
vt -1 0
vt -0.75 0
vt -0.5 0
vt -0.5 -0.2188262
vt -0.7292824 -0.2132871
vt -0.04143429 -0.2188262
vt -0.2707171 -0.2188262
vt -0.25 0
vt -0.2914352 -0.4285765
vt -0.5 -0.4285765
vt -0.5 -0.2132871
vt -0.2707176 -0.2132871
vt -0.8780575 0.1788778
vt -0.1219425 0.1788778
vt 0.4566785 0.07703647
vt 0.6730084 0.1159656
vt 0.4490622 -0.1411792
vt 0.6653913 -0.1396629
vt 0.3121514 0.1360655
vt 0.312151 -0.1196765
vt 0.5 0.1360655
vt 0.6878486 0.1360655
vt 0.5 -0.1196765
vt 0.687849 -0.1196765
vt -0.5769333 0.1192529
vt -0.3606034 0.08032374
vt -0.5693161 -0.1363756
vt -0.3529871 -0.137892
vt 0.2403487 0.03810733
vt 0.2327321 -0.1435571
vt -0.1442735 0.0413946
vt -0.1366569 -0.1402699
vt -0.7292829 0.04795702
vt -0.7292824 -0.1338671
vt -0.5 0.04795702
vt -0.2707171 0.04795702
vt -0.5 -0.1338671
vt -0.2707176 -0.1338671
vt 0.451483 -0.1403508
vt 0.4523869 -0.375757
vt -0.500132 -0.1435219
vt -0.5001307 -0.3789343
vt 0.6368734 -0.1388462
vt 0.6377772 -0.3835171
vt 0.5015107 -0.1411932
vt 0.5015129 -0.3858704
vt -0.6471054 -0.1356106
vt -0.4590156 -0.1371218
vt -0.6480095 -0.3802848
vt -0.4598919 -0.3725432
vt 0.6893592 -0.1411916
vt 0.6893614 -0.3858687
vt -0.7294142 -0.1435231
vt -0.7294129 -0.3789355
vt 0.6878499 -0.637439
vt 0.9864702 -0.6389303
vt 0.9879843 -0.3857627
vt 0.9879822 -0.1410856
vt -0.707009 -0.4371233
vt -0.6862615 -0.6525945
vt -0.9813067 -0.4658709
vt -0.9848796 -0.6541241
vt 0.7085657 -0.4220988
vt 0.7292833 -0.206752
vt 0.9866304 -0.4508283
vt 0.9867277 -0.2354816
vt -0.9771392 -0.1435244
vt -0.9771379 -0.3789368
vt -0.7295849 -0.2044355
vt -0.7088654 -0.4197843
vt -0.9870292 -0.2331667
vt -0.9831649 -0.4485156
vt -0.2708485 -0.378933
vt -0.2708499 -0.1435207
vt 0.02781356 -0.3789313
vt 0.02781226 -0.1435189
vt -0.2911754 -0.4197719
vt -0.2704561 -0.2044231
vt 0.007445638 -0.4485031
vt 0.01669506 -0.2331541
vt 0.2914362 -0.4220988
vt -0.007185009 -0.4508283
vt 0.3136622 -0.1411949
vt 0.3136644 -0.385872
vt -0.003472429 -0.1410843
vt -0.003470271 -0.3857615
vt -0.3122296 -0.6526272
vt -0.2915123 -0.4371531
vt 0.00490337 -0.6514077
vt 0.0071089 -0.4658624
vt 0.0164336 -0.235884
vt -0.2707177 -0.2071544
vt 0.02790344 0.06411593
vt -0.2707177 0.09284563
vt -0.009190571 -0.2354815
vt -0.02790261 0.06451733
vt 0.2361548 -0.1427116
vt 0.2369 -0.3781628
vt -0.06418097 -0.1439228
vt -0.06327711 -0.3793291
vt 0.2707186 -0.206752
vt 0.2707186 0.09324691
vt -0.5 -0.2071544
vt -0.5 0.09284563
vt 0.500001 -0.206752
vt 0.500001 0.09324691
vt -0.7292824 -0.2071544
vt -0.7292824 0.09284563
vt 0.9770498 0.06451777
vt 0.7292833 0.0932469
vt -0.9867266 -0.235884
vt -0.9770488 0.0641164
vt -0.2445904 -0.3749035
vt -0.2436864 -0.1394941
vt 0.05547106 -0.3760631
vt 0.05637512 -0.1406537
vt -0.004981078 -0.6362209
vt -0.005707785 -0.9362191
vt -0.312288 -0.6378378
vt 0.004844932 -0.636619
vt -0.3115606 -0.9378369
vt 0.005572028 -0.9366183
vt 0.9376866 -0.3824541
vt 0.9367828 -0.1377832
vt 0.3121519 -0.637439
vt 0.3114249 -0.9374369
vt -0.5 -0.637837
vt -0.499273 -0.9378361
vt -0.311424 -0.9378361
vt 0.5000009 -0.637439
vt 0.4992739 -0.9374369
vt -0.687849 -0.637837
vt -0.687122 -0.9378361
vt -0.9863365 -0.6393264
vt -0.9856099 -0.9393255
vt -0.6869897 -0.9378349
vt 0.6871229 -0.9374369
vt 0.9857432 -0.9389282
vt -0.947089 -0.1345115
vt -0.947993 -0.3791858

vn -0.03691413 0 -0.9993186
vn 0.006567016 0.9840486 0.1777786
vn 0.571609 0 -0.8205263
vn -0.630588 0 -0.776118
vn -0.03168018 -0.513294 -0.857628
vn 0.9882923 0 0.1525732
vn 0.03691413 0 0.9993186
vn -0.9743424 0 0.2250716
vn 0.006567016 -0.9840486 0.1777786
vn -0.001327483 -0.9993532 -0.03593688
vn -0.0001707794 -0.9997437 -0.004623244
vn 0.0004075725 -0.999939 0.01103357
vn -0.0007491313 -0.9995484 -0.02028006
vn -0.03168018 0.513294 -0.857628
vn -0.9911229 -0.003604879 0.1329007
vn -0.9911442 -0.003124557 0.1327536
vn -0.9911845 -0.002865429 0.1324588
vn 0.0368976 -0.02992282 0.9988711
vn 0.9982259 -0.002880463 0.05947392
vn 0.998233 -0.003209061 0.05933726
vn 0.9982409 -0.003595047 0.05918017
vn -0.9910851 -0.004067158 0.13317
vn 0.9982498 -0.004038421 0.05900263
vn -0.03688142 0.04208487 -0.9984332
vn -0.9980325 0.01033106 0.05813467
vn -0.9981443 8.478536E-05 0.0591129
vn -0.03691386 -0.003840423 -0.9993112
vn -0.9991071 1.792061E-05 0.04164251
vn 0.03691388 0.003695005 0.9993117
vn 0.9993774 6.050736E-06 -0.03527765
vn 0.9989417 -0.01068363 -0.04301795
vn 0.9991054 -0.004010911 -0.04043924
vn 0.9990985 -0.01066172 -0.03732615
vn 0.03441892 0.003694982 0.9993977
vn 0.0207603 -0.003827644 -0.9981117
vn -0.000336297 0.9999887 -0.004530063
vn -0.0003528253 0.9999822 -0.005621703
vn 0.03192397 0.003694959 0.9994836
vn 0.002805973 -0.9993589 -0.03569299
vn 0.0009277699 -0.9992554 -0.03842884
vn -0.0009504328 -0.9991519 -0.04116469
vn -3.675272E-05 0.9999607 -0.008705239
vn 6.349249E-05 0.9999714 -0.006680662
vn 0.0002936539 0.9999486 -0.01004106
vn 0.0001304954 0.9999658 -0.007423257
vn 0.07843445 -0.003814864 -0.9969122
vn -0.0003954041 -0.9999396 0.01098615
vn -0.08467924 -0.003831598 -0.9952472
vn -0.1324446 -0.003822772 -0.9911832
vn 0.001095935 -0.9999396 0.0109416
vn -0.000937973 0.9999513 -0.009643775
vn -0.000533341 0.9999602 -0.008728927
vn 0.0349945 0.003694991 0.999379
vn 0.03307512 0.003694977 0.9994462
vn -0.001531553 -0.9993539 -0.03590963
vn -0.003722587 -0.9992371 -0.03871432
vn -0.005913621 -0.9991202 -0.041519
vn 0.0001394586 -0.9999928 0.00378373
vn -0.0006310722 0.999966 -0.007375984
vn -0.0001394655 0.9999928 -0.003783687
vn -0.9965458 0.03085563 0.07237372
vn -0.9967712 0.01550569 0.07489214
vn -0.9958983 0.01553762 0.08697757
vn -0.9971788 0.000146723 0.07506576
vn 0.9987144 -2.747779E-05 -0.04405152
vn 0.9985629 -0.004042026 -0.04837505
vn 0.9976088 -0.000123826 -0.06911553
vn -0.9994051 -8.950523E-06 0.03449336
vn -3.815911E-05 0.9999843 -0.005257377
vn 0.9994051 8.954199E-06 -0.03449236

usemtl Computer_Color
f 14/27/6 10/26/6 6/25/6
f 11/21/6 14/27/6 6/25/6
f 8/24/6 13/23/6 12/22/6
f 8/24/6 12/22/6 11/21/6
f 6/25/6 8/24/6 11/21/6
f 16/32/7 8/29/7 7/28/7
f 16/32/7 15/31/7 8/29/7
f 15/31/7 13/30/7 8/29/7
f 7/28/7 17/33/7 16/32/7
f 7/28/7 18/34/7 17/33/7
f 20/38/8 7/35/8 5/9/8
f 20/38/8 19/37/8 7/35/8
f 19/37/8 18/36/8 7/35/8
f 5/9/8 21/39/8 20/38/8
f 5/9/8 9/10/8 21/39/8
f 1/73/14 37/67/14 9/10/14
f 33/62/14 37/67/14 1/73/14
f 1/73/14 2/72/14 33/62/14
f 2/72/14 32/61/14 33/62/14
f 2/72/14 10/60/14 32/61/14
f 40/70/12 38/68/11 41/71/12
f 40/70/12 39/69/13 38/68/11
f 39/69/13 26/49/10 38/68/11
f 39/69/13 25/48/10 26/49/10
f 29/56/11 30/57/10 39/69/13
f 30/57/10 25/48/10 39/69/13
f 35/64/12 29/56/11 40/70/12
f 29/56/11 39/69/13 40/70/12
f 79/144/54 78/143/53 77/142/53
f 79/144/54 80/145/54 78/143/53
f 78/143/53 56/104/29 77/142/53
f 78/143/53 57/105/29 56/104/29
f 57/105/29 62/110/34 56/104/29
f 57/105/29 63/111/34 62/110/34
f 66/116/38 62/110/34 63/111/34
f 66/116/38 67/117/38 62/110/34
f 74/134/49 73/133/48 72/132/48
f 74/134/49 75/135/49 73/133/48
f 53/101/27 73/133/48 52/100/27
f 53/101/27 72/132/48 73/133/48
f 65/113/35 52/100/27 64/112/35
f 65/113/35 53/101/27 52/100/27
f 69/126/46 65/113/35 64/112/35
f 69/126/46 70/127/46 65/113/35
f 59/124/44 48/123/43 46/122/42
f 59/124/44 68/125/45 48/123/43
f 58/115/37 46/122/42 45/114/36
f 58/115/37 59/124/44 46/122/42
f 62/196/60 58/115/37 45/114/36
f 62/196/60 67/197/60 58/115/37
f 56/190/60 45/114/36 44/189/60
f 56/190/60 62/196/60 45/114/36
f 77/185/60 44/189/60 43/184/69
f 77/185/60 56/190/60 44/189/60
f 79/177/60 43/184/69 54/176/37
f 79/177/60 77/185/60 43/184/69
f 50/141/52 43/184/69 42/140/51
f 50/141/52 54/176/37 43/184/69
f 69/168/60 48/123/43 68/125/45
f 69/168/60 64/169/60 48/123/43
f 64/169/60 49/164/60 48/123/43
f 64/169/60 52/165/60 49/164/60
f 52/165/60 47/160/37 49/164/60
f 52/165/60 73/161/60 47/160/37
f 73/161/60 81/154/59 47/160/37
f 73/161/60 75/155/60 81/154/59
f 81/154/59 42/140/51 47/160/37
f 81/154/59 50/141/52 42/140/51
f 75/158/63 76/157/62 81/156/61
f 75/158/63 74/159/64 76/157/62
f 76/157/62 50/98/25 81/156/61
f 76/157/62 51/99/26 50/98/25
f 51/99/26 54/102/28 50/98/25
f 51/99/26 55/103/28 54/102/28
f 80/182/68 54/102/28 55/103/28
f 80/182/68 79/183/68 54/102/28
f 44/82/18 27/81/18 24/80/18
f 44/82/18 45/83/18 27/81/18
f 43/79/18 24/80/18 22/78/18
f 43/79/18 44/82/18 24/80/18
f 42/76/16 22/75/16 23/74/15
f 42/76/16 43/77/17 22/75/16
f 47/89/15 23/74/15 36/88/22
f 47/89/15 42/76/16 23/74/15
f 49/96/24 36/95/24 34/94/24
f 49/96/24 47/97/24 36/95/24
f 48/93/24 34/94/24 31/92/24
f 48/93/24 49/96/24 34/94/24
f 45/86/20 28/85/20 27/84/19
f 45/86/20 46/87/21 28/85/20
f 46/87/21 31/90/21 28/85/20
f 46/87/21 48/91/23 31/90/21
f 70/174/67 68/173/66 71/172/65
f 70/174/67 69/175/67 68/173/66
f 60/108/32 59/107/31 58/106/30
f 60/108/32 61/109/33 59/107/31
f 61/109/33 68/173/66 59/107/31
f 61/109/33 71/172/65 68/173/66
f 67/198/70 60/108/32 58/106/30
f 67/198/70 66/199/70 60/108/32
f 8/8/2 6/6/2 5/5/2
f 5/5/2 7/7/2 8/8/2
f 1/12/3 9/10/3 5/9/3
f 5/9/3 3/11/3 1/12/3
f 4/16/4 6/14/4 10/13/4
f 10/13/4 2/15/4 4/16/4
f 3/20/5 5/18/5 6/17/5
f 6/17/5 4/19/5 3/20/5
f 22/42/9 19/41/9 20/40/9
f 20/40/9 23/43/9 22/42/9
f 17/45/9 18/44/9 19/41/9
f 19/41/9 22/42/9 17/45/9
f 16/46/9 17/45/9 22/42/9
f 22/42/9 24/47/9 16/46/9
f 13/50/9 15/53/9 27/52/9
f 27/52/9 12/51/9 13/50/9
f 12/51/9 27/52/9 28/55/9
f 28/55/9 11/54/9 12/51/9
f 24/47/9 27/52/9 15/53/9
f 15/53/9 16/46/9 24/47/9
f 11/54/9 28/55/9 31/59/9
f 31/59/9 14/58/9 11/54/9
f 14/58/9 31/59/9 32/61/9
f 32/61/9 10/60/9 14/58/9
f 33/62/9 32/61/9 31/59/9
f 31/59/9 34/63/9 33/62/9
f 36/66/9 21/65/9 9/10/9
f 9/10/9 37/67/9 36/66/9
f 23/43/9 20/40/9 21/65/9
f 21/65/9 36/66/9 23/43/9
f 34/63/9 36/66/9 37/67/9
f 37/67/9 33/62/9 34/63/9
f 60/121/41 30/119/40 29/118/39
f 29/118/39 61/120/40 60/121/41
f 61/131/12 29/129/12 35/128/47
f 35/128/47 71/130/12 61/131/12
f 76/139/50 41/137/50 38/136/50
f 38/136/50 51/138/50 76/139/50
f 51/149/57 38/147/56 26/146/55
f 26/146/55 55/148/56 51/149/57
f 72/153/58 41/151/58 76/150/58
f 76/150/58 74/152/58 72/153/58
f 53/163/58 40/162/58 41/151/58
f 41/151/58 72/153/58 53/163/58
f 65/167/58 35/166/58 40/162/58
f 40/162/58 53/163/58 65/167/58
f 70/171/58 71/170/58 35/166/58
f 35/166/58 65/167/58 70/171/58
f 80/181/58 55/179/58 26/178/58
f 26/178/58 78/180/58 80/181/58
f 78/188/58 26/178/58 25/186/58
f 25/186/58 57/187/58 78/188/58
f 57/187/58 25/186/58 30/191/58
f 30/191/58 63/192/58 57/187/58
f 63/195/58 30/191/58 60/193/58
f 60/193/58 66/194/58 63/195/58

usemtl Computer_Screen
f 3/3/1 4/4/1 2/2/1 1/1/1

