# ProBuilder 4.5.2
# https://unity3d.com/unity/features/worldbuilding/probuilder
# 9/17/2021 11:04:23 AM

mtllib ./desk2.mtl
o desk2

g Cube (11)
v -0.97 0.961 7.207
v -1.0062 0.961 7.207
v -0.97 1.00045 7.207
v -1.0062 1.00045 7.207
v -1.0062 0.961 6.88785
v -1.0062 1.00045 6.88785
v -0.97 0.961 6.88785
v -0.97 1.00045 6.88785
v -0.99 -0.006900024 7.8
v -2.99 -0.006900024 7.8
v -0.99 1.604187 7.8
v -2.99 1.604187 7.8
v -2.99 -0.006900024 7.6
v -2.99 1.604187 7.6
v -0.99 -0.006900024 7.6
v -0.99 1.604187 7.6
v -0.97 0.961 4.165
v -1.0062 0.961 4.165
v -0.97 1.00045 4.165
v -1.0062 1.00045 4.165
v -1.0062 0.961 3.84585
v -1.0062 1.00045 3.84585
v -0.97 0.961 3.84585
v -0.97 1.00045 3.84585
v -0.9087 1.738 7.895
v -3.004874 1.738 7.895
v -0.9087 1.871799 7.895
v -3.004874 1.871799 7.895
v -3.004874 1.738 3.243713
v -3.004874 1.871799 3.243713
v -0.9087 1.738 3.243713
v -0.9087 1.871799 3.243713
v -0.99 1.59 7.8
v -2.99 1.59 7.8
v -0.99 1.723799 7.8
v -2.99 1.723799 7.8
v -2.99 1.59 3.342183
v -2.99 1.723799 3.342183
v -0.99 1.59 3.342183
v -0.99 1.723799 3.342183
v -0.97 1.409 4.165
v -1.0062 1.409 4.165
v -0.97 1.44845 4.165
v -1.0062 1.44845 4.165
v -1.0062 1.409 3.84585
v -1.0062 1.44845 3.84585
v -0.97 1.409 3.84585
v -0.97 1.44845 3.84585
v -0.99 -0.006900024 3.535
v -2.99 -0.006900024 3.535
v -0.99 1.604187 3.535
v -2.99 1.604187 3.535
v -2.99 -0.006900024 3.335
v -2.99 1.604187 3.335
v -0.99 -0.006900024 3.335
v -0.99 1.604187 3.335
v -1.0043 1.1318 7.591
v -2.990269 1.1318 7.591
v -1.0043 1.585553 7.591
v -2.990269 1.585553 7.591
v -2.990269 1.1318 6.591
v -2.990269 1.585553 6.591
v -1.0043 1.1318 6.591
v -1.0043 1.585553 6.591
v -1.0043 0.4084 7.591
v -2.990269 0.4084 7.591
v -1.0043 1.136182 7.591
v -2.990269 1.136182 7.591
v -2.990269 0.4084 6.591
v -2.990269 1.136182 6.591
v -1.0043 0.4084 6.591
v -1.0043 1.136182 6.591
v -1.0043 0.4084 4.549
v -2.990269 0.4084 4.549
v -1.0043 1.136182 4.549
v -2.990269 1.136182 4.549
v -2.990269 0.4084 3.549
v -2.990269 1.136182 3.549
v -1.0043 0.4084 3.549
v -1.0043 1.136182 3.549
v -1.0043 1.1318 4.549
v -2.990269 1.1318 4.549
v -1.0043 1.585553 4.549
v -2.990269 1.585553 4.549
v -2.990269 1.1318 3.549
v -2.990269 1.585553 3.549
v -1.0043 1.1318 3.549
v -1.0043 1.585553 3.549
v -0.97 1.409 7.207
v -1.0062 1.409 7.207
v -0.97 1.44845 7.207
v -1.0062 1.44845 7.207
v -1.0062 1.409 6.88785
v -1.0062 1.44845 6.88785
v -0.97 1.409 6.88785
v -0.97 1.44845 6.88785

vt 0 0
vt -1 0
vt 0 1
vt -1 1
vt 1 0
vt 1 1
vt 0 -1
vt 1 -1
vt -1 -1
vt -2 0
vt 0 2
vt -2 2
vt -2 0
vt -2 2
vt 2 0
vt 2 2
vt 2 0
vt 2 2
vt 0 -2
vt 2 -2
vt -2 -2
vt 0 -2
vt 2 -2
vt -2 -2

vn 0 0 0.31915
vn -0.0362 0 0
vn 0 0 -0.31915
vn 0.0362 0 0
vn 0 0.03945 0
vn 0 -0.03945 0

usemtl New_Material
f 3/3/1 4/4/1 2/2/1 1/1/1
f 4/3/2 6/4/2 5/2/2 2/1/2
f 6/6/3 8/3/3 7/1/3 5/5/3
f 8/6/4 3/3/4 1/1/4 7/5/4
f 8/7/5 6/8/5 4/5/5 3/1/5
f 1/1/6 2/2/6 5/9/6 7/7/6
f 19/3/1 20/4/1 18/2/1 17/1/1
f 20/3/2 22/4/2 21/2/2 18/1/2
f 22/6/3 24/3/3 23/1/3 21/5/3
f 24/6/4 19/3/4 17/1/4 23/5/4
f 24/7/5 22/8/5 20/5/5 19/1/5
f 17/1/6 18/2/6 21/9/6 23/7/6
f 43/3/1 44/4/1 42/2/1 41/1/1
f 44/3/2 46/4/2 45/2/2 42/1/2
f 46/6/3 48/3/3 47/1/3 45/5/3
f 48/6/4 43/3/4 41/1/4 47/5/4
f 48/7/5 46/8/5 44/5/5 43/1/5
f 41/1/6 42/2/6 45/9/6 47/7/6
f 91/3/1 92/4/1 90/2/1 89/1/1
f 92/3/2 94/4/2 93/2/2 90/1/2
f 94/6/3 96/3/3 95/1/3 93/5/3
f 96/6/4 91/3/4 89/1/4 95/5/4
f 96/7/5 94/8/5 92/5/5 91/1/5
f 89/1/6 90/2/6 93/9/6 95/7/6

usemtl deskBottom
f 11/11/1 12/12/1 10/10/1 9/1/1
f 12/11/2 14/14/2 13/13/2 10/1/2
f 14/16/3 16/11/3 15/1/3 13/15/3
f 16/18/4 11/11/4 9/1/4 15/17/4
f 16/19/5 14/20/5 12/15/5 11/1/5
f 9/1/6 10/10/6 13/21/6 15/19/6
f 35/11/1 36/12/1 34/10/1 33/1/1
f 36/11/2 38/12/2 37/10/2 34/1/2
f 38/16/3 40/11/3 39/1/3 37/15/3
f 40/16/4 35/11/4 33/1/4 39/15/4
f 40/22/5 38/23/5 36/15/5 35/1/5
f 33/1/6 34/10/6 37/24/6 39/22/6
f 51/11/1 52/12/1 50/10/1 49/1/1
f 52/11/2 54/12/2 53/10/2 50/1/2
f 54/16/3 56/11/3 55/1/3 53/15/3
f 56/16/4 51/11/4 49/1/4 55/15/4
f 56/22/5 54/23/5 52/15/5 51/1/5
f 49/1/6 50/10/6 53/24/6 55/22/6
f 59/3/1 60/4/1 58/2/1 57/1/1
f 60/3/2 62/4/2 61/2/2 58/1/2
f 62/6/3 64/3/3 63/1/3 61/5/3
f 64/6/4 59/3/4 57/1/4 63/5/4
f 64/7/5 62/8/5 60/5/5 59/1/5
f 57/1/6 58/2/6 61/9/6 63/7/6
f 67/3/1 68/4/1 66/2/1 65/1/1
f 68/3/2 70/4/2 69/2/2 66/1/2
f 70/6/3 72/3/3 71/1/3 69/5/3
f 72/6/4 67/3/4 65/1/4 71/5/4
f 72/7/5 70/8/5 68/5/5 67/1/5
f 65/1/6 66/2/6 69/9/6 71/7/6
f 75/3/1 76/4/1 74/2/1 73/1/1
f 76/3/2 78/4/2 77/2/2 74/1/2
f 78/6/3 80/3/3 79/1/3 77/5/3
f 80/6/4 75/3/4 73/1/4 79/5/4
f 80/7/5 78/8/5 76/5/5 75/1/5
f 73/1/6 74/2/6 77/9/6 79/7/6
f 83/3/1 84/4/1 82/2/1 81/1/1
f 84/3/2 86/4/2 85/2/2 82/1/2
f 86/6/3 88/3/3 87/1/3 85/5/3
f 88/6/4 83/3/4 81/1/4 87/5/4
f 88/7/5 86/8/5 84/5/5 83/1/5
f 81/1/6 82/2/6 85/9/6 87/7/6

usemtl deskTop
f 27/11/1 28/12/1 26/10/1 25/1/1
f 28/11/2 30/12/2 29/10/2 26/1/2
f 30/16/3 32/11/3 31/1/3 29/15/3
f 32/16/4 27/11/4 25/1/4 31/15/4
f 32/22/5 30/23/5 28/15/5 27/1/5
f 25/1/6 26/10/6 29/24/6 31/22/6

