# ProBuilder 4.5.2
# https://unity3d.com/unity/features/worldbuilding/probuilder
# 9/19/2021 12:59:35 PM

mtllib ./Shelf.mtl
o Shelf

g Cube
v -6.82 2.42 4.21
v -7.63994 2.42 4.21
v -6.82 2.53115 4.21
v -7.63994 2.53115 4.21
v -7.63994 2.42 2.5822
v -7.63994 2.53115 2.5822
v -6.82 2.42 2.5822
v -6.82 2.53115 2.5822

vt 0 0
vt -1 0
vt 0 1
vt -1 1
vt 1 0
vt 1 1
vt 0 -1
vt 1 -1
vt -1 -1

vn 0 0 1.6278
vn -0.81994 0 0
vn 0 0 -1.6278
vn 0.81994 0 0
vn 0 0.11115 0
vn 0 -0.11115 0

usemtl ChairBottom
f 3/3/1 4/4/1 2/2/1 1/1/1
f 4/3/2 6/4/2 5/2/2 2/1/2
f 6/6/3 8/3/3 7/1/3 5/5/3
f 8/6/4 3/3/4 1/1/4 7/5/4
f 8/7/5 6/8/5 4/5/5 3/1/5
f 1/1/6 2/2/6 5/9/6 7/7/6

